<?xml version="1.0" encoding="UTF-8" standalone="no"?>
<svg
   xmlns:dc="http://purl.org/dc/elements/1.1/"
   xmlns:cc="http://creativecommons.org/ns#"
   xmlns:rdf="http://www.w3.org/1999/02/22-rdf-syntax-ns#"
   xmlns:svg="http://www.w3.org/2000/svg"
   xmlns="http://www.w3.org/2000/svg"
   xmlns:sodipodi="http://sodipodi.sourceforge.net/DTD/sodipodi-0.dtd"
   xmlns:inkscape="http://www.inkscape.org/namespaces/inkscape"
   version="1.1"
   viewBox="0 0 600 700"
   stroke-miterlimit="10"
   id="svg2"
   inkscape:version="0.91 r13725"
   sodipodi:docname="database-model.svg"
   width="600"
   height="700"
   style="fill:none;stroke:none;stroke-linecap:square;stroke-miterlimit:10"
   inkscape:export-filename="/my-data/projects/okfn/offene-wahlen/github_offenewahlen-nrw17/docs/database-model.png"
   inkscape:export-xdpi="56.25"
   inkscape:export-ydpi="56.25">
  <metadata
     id="metadata181">
    <rdf:RDF>
      <cc:Work
         rdf:about="">
        <dc:format>image/svg+xml</dc:format>
        <dc:type
           rdf:resource="http://purl.org/dc/dcmitype/StillImage" />
        <dc:title></dc:title>
      </cc:Work>
    </rdf:RDF>
  </metadata>
  <defs
     id="defs179" />
  <sodipodi:namedview
     pagecolor="#ffffff"
     bordercolor="#666666"
     borderopacity="1"
     objecttolerance="10"
     gridtolerance="10"
     guidetolerance="10"
     inkscape:pageopacity="1"
     inkscape:pageshadow="2"
     inkscape:window-width="1920"
     inkscape:window-height="1176"
     id="namedview177"
     showgrid="false"
     inkscape:zoom="0.32777778"
     inkscape:cx="19.322034"
     inkscape:cy="360"
     inkscape:window-x="1920"
     inkscape:window-y="114"
     inkscape:window-maximized="1"
     inkscape:current-layer="svg2" />
  <clipPath
     id="p.0">
    <path
       d="M 0,0 960,0 960,720 0,720 0,0 Z"
       id="path5"
       inkscape:connector-curvature="0"
       style="clip-rule:nonzero" />
  </clipPath>
  <g
     clip-path="url(#p.0)"
     id="g7"
     transform="translate(0,-20)">
    <path
       d="m 0,0 960,0 0,720 -960,0 z"
       id="path9"
       inkscape:connector-curvature="0"
       style="fill:#000000;fill-opacity:0;fill-rule:evenodd" />
    <path
       d="m 78.69292,71.338585 141.95276,0 0,40.472435 -141.95276,0 z"
       id="path11"
       inkscape:connector-curvature="0"
       style="fill:#cfe2f3;fill-rule:evenodd" />
    <path
       d="m 78.69292,71.338585 141.95276,0 0,40.472435 -141.95276,0 z"
       id="path13"
       inkscape:connector-curvature="0"
       style="fill-rule:evenodd;stroke:#000000;stroke-width:1;stroke-linecap:butt;stroke-linejoin:round" />
    <path
       d="m 109.55602,97.4348 0,-11.453125 4.32812,0 q 1.14063,0 1.73438,0.109375 0.84375,0.140625 1.40625,0.53125 0.57812,0.390625 0.92187,1.109375 0.35938,0.703125 0.35938,1.5625 0,1.453125 -0.9375,2.46875 -0.92188,1.015625 -3.35938,1.015625 l -2.9375,0 0,4.65625 -1.51562,0 z m 1.51562,-6.015625 2.96875,0 q 1.46875,0 2.07813,-0.546875 0.625,-0.546875 0.625,-1.53125 0,-0.71875 -0.375,-1.234375 -0.35938,-0.515625 -0.95313,-0.671875 -0.375,-0.109375 -1.40625,-0.109375 l -2.9375,0 0,4.09375 z m 14.39063,4.984375 q -0.78125,0.671875 -1.5,0.953125 -0.71875,0.265625 -1.54688,0.265625 -1.375,0 -2.10937,-0.671875 -0.73438,-0.671875 -0.73438,-1.703125 0,-0.609375 0.28125,-1.109375 0.28125,-0.515625 0.71875,-0.8125 0.45313,-0.3125 1.01563,-0.46875 0.42187,-0.109375 1.25,-0.203125 1.70312,-0.203125 2.51562,-0.484375 0,-0.296875 0,-0.375 0,-0.859375 -0.39062,-1.203125 -0.54688,-0.484375 -1.60938,-0.484375 -0.98437,0 -1.46875,0.359375 -0.46875,0.34375 -0.6875,1.21875 l -1.375,-0.1875 q 0.1875,-0.875 0.60938,-1.421875 0.4375,-0.546875 1.25,-0.828125 0.8125,-0.296875 1.875,-0.296875 1.0625,0 1.71875,0.25 0.67187,0.25 0.98437,0.625 0.3125,0.375 0.4375,0.953125 0.0781,0.359375 0.0781,1.296875 l 0,1.875 q 0,1.96875 0.0781,2.484375 0.0937,0.515625 0.35938,1 l -1.46875,0 q -0.21875,-0.4375 -0.28125,-1.03125 z m -0.10938,-3.140625 q -0.76562,0.3125 -2.29687,0.53125 -0.875,0.125 -1.23438,0.28125 -0.35937,0.15625 -0.5625,0.46875 -0.1875,0.296875 -0.1875,0.65625 0,0.5625 0.42188,0.9375 0.4375,0.375 1.25,0.375 0.8125,0 1.4375,-0.34375 0.64062,-0.359375 0.9375,-0.984375 0.23437,-0.46875 0.23437,-1.40625 l 0,-0.515625 z m 3.58594,4.171875 0,-8.296875 1.26562,0 0,1.25 q 0.48438,-0.875 0.89063,-1.15625 0.40625,-0.28125 0.90625,-0.28125 0.70312,0 1.4375,0.453125 l -0.48438,1.296875 q -0.51562,-0.296875 -1.03125,-0.296875 -0.45312,0 -0.82812,0.28125 -0.35938,0.265625 -0.51563,0.765625 -0.23437,0.75 -0.23437,1.640625 l 0,4.34375 -1.40625,0 z m 8.40625,-1.265625 0.20312,1.25 q -0.59375,0.125 -1.0625,0.125 -0.76562,0 -1.1875,-0.234375 -0.42187,-0.25 -0.59375,-0.640625 -0.17187,-0.40625 -0.17187,-1.671875 l 0,-4.765625 -1.03125,0 0,-1.09375 1.03125,0 0,-2.0625 1.40625,-0.84375 0,2.90625 1.40625,0 0,1.09375 -1.40625,0 0,4.84375 q 0,0.609375 0.0625,0.78125 0.0781,0.171875 0.25,0.28125 0.17187,0.09375 0.48437,0.09375 0.23438,0 0.60938,-0.0625 z m 1.32031,4.468745 -0.15625,-1.32812 q 0.45312,0.125 0.79687,0.125 0.46875,0 0.75,-0.15625 0.28125,-0.15625 0.46875,-0.4375 0.125,-0.203125 0.42188,-1.046875 0.0469,-0.109375 0.125,-0.34375 l -3.14063,-8.3125 1.51563,0 1.71875,4.796875 q 0.34375,0.921875 0.60937,1.921875 0.23438,-0.96875 0.57813,-1.890625 l 1.76562,-4.828125 1.40625,0 -3.15625,8.4375 q -0.5,1.375 -0.78125,1.890625 -0.375,0.6875 -0.85937,1.01562 -0.48438,0.32813 -1.15625,0.32813 -0.40625,0 -0.90625,-0.17188 z m 8.26562,-3.20312 0,-11.453125 5.07813,0 q 1.53125,0 2.32812,0.3125 0.79688,0.296875 1.26563,1.078125 0.48437,0.78125 0.48437,1.734375 0,1.21875 -0.79687,2.0625 -0.78125,0.828125 -2.4375,1.046875 0.60937,0.296875 0.92187,0.578125 0.65625,0.609375 1.25,1.515625 l 2,3.125 -1.90625,0 -1.51562,-2.390625 q -0.67188,-1.03125 -1.10938,-1.578125 -0.42187,-0.546875 -0.76562,-0.765625 -0.32813,-0.21875 -0.6875,-0.296875 -0.25,-0.0625 -0.84375,-0.0625 l -1.75,0 0,5.09375 -1.51563,0 z m 1.51563,-6.40625 3.25,0 q 1.04687,0 1.625,-0.203125 0.59375,-0.21875 0.89062,-0.6875 0.3125,-0.484375 0.3125,-1.03125 0,-0.8125 -0.59375,-1.328125 -0.59375,-0.53125 -1.85937,-0.53125 l -3.625,0 0,3.78125 z m 15.50781,3.734375 1.45313,0.171875 q -0.34375,1.28125 -1.28125,1.984375 -0.92188,0.703125 -2.35938,0.703125 -1.82812,0 -2.89062,-1.125 -1.0625,-1.125 -1.0625,-3.140625 0,-2.09375 1.07812,-3.25 1.07813,-1.15625 2.79688,-1.15625 1.65625,0 2.70312,1.140625 1.0625,1.125 1.0625,3.171875 0,0.125 0,0.375 l -6.1875,0 q 0.0781,1.375 0.76563,2.109375 0.70312,0.71875 1.73437,0.71875 0.78125,0 1.32813,-0.40625 0.54687,-0.40625 0.85937,-1.296875 z m -4.60937,-2.28125 4.625,0 q -0.0937,-1.046875 -0.53125,-1.5625 -0.67188,-0.8125 -1.73438,-0.8125 -0.96875,0 -1.64062,0.65625 -0.65625,0.640625 -0.71875,1.71875 z m 7.27343,2.46875 1.39063,-0.21875 q 0.10937,0.84375 0.64062,1.296875 0.54688,0.4375 1.5,0.4375 0.96875,0 1.4375,-0.390625 0.46875,-0.40625 0.46875,-0.9375 0,-0.46875 -0.40625,-0.75 -0.29687,-0.1875 -1.4375,-0.46875 -1.54687,-0.390625 -2.15625,-0.671875 -0.59375,-0.296875 -0.90625,-0.796875 -0.29687,-0.5 -0.29687,-1.109375 0,-0.5625 0.25,-1.03125 0.25,-0.46875 0.6875,-0.78125 0.32812,-0.25 0.89062,-0.40625 0.57813,-0.171875 1.21875,-0.171875 0.98438,0 1.71875,0.28125 0.73438,0.28125 1.07813,0.765625 0.35937,0.46875 0.5,1.28125 l -1.375,0.1875 q -0.0937,-0.640625 -0.54688,-1 -0.45312,-0.359375 -1.26562,-0.359375 -0.96875,0 -1.39063,0.328125 -0.40625,0.3125 -0.40625,0.734375 0,0.28125 0.17188,0.5 0.17187,0.21875 0.53125,0.375 0.21875,0.07813 1.25,0.359375 1.48437,0.390625 2.07812,0.65625 0.59375,0.25 0.92188,0.734375 0.34375,0.484375 0.34375,1.203125 0,0.703125 -0.42188,1.328125 -0.40625,0.609375 -1.1875,0.953125 -0.76562,0.34375 -1.73437,0.34375 -1.625,0 -2.46875,-0.671875 -0.84375,-0.671875 -1.07813,-2 z m 14,2.484375 0,-1.21875 q -0.96875,1.40625 -2.64062,1.40625 -0.73438,0 -1.375,-0.28125 -0.625,-0.28125 -0.9375,-0.703125 -0.3125,-0.4375 -0.4375,-1.046875 -0.0781,-0.421875 -0.0781,-1.3125 l 0,-5.140625 1.40625,0 0,4.59375 q 0,1.109375 0.0781,1.484375 0.14062,0.5625 0.5625,0.875 0.4375,0.3125 1.0625,0.3125 0.64062,0 1.1875,-0.3125 0.5625,-0.328125 0.78125,-0.890625 0.23437,-0.5625 0.23437,-1.625 l 0,-4.4375 1.40625,0 0,8.296875 -1.25,0 z m 3.42969,0 0,-11.453125 1.40625,0 0,11.453125 -1.40625,0 z m 6.64844,-1.265625 0.20312,1.25 q -0.59375,0.125 -1.0625,0.125 -0.76562,0 -1.1875,-0.234375 -0.42187,-0.25 -0.59375,-0.640625 -0.17187,-0.40625 -0.17187,-1.671875 l 0,-4.765625 -1.03125,0 0,-1.09375 1.03125,0 0,-2.0625 1.40625,-0.84375 0,2.90625 1.40625,0 0,1.09375 -1.40625,0 0,4.84375 q 0,0.609375 0.0625,0.78125 0.0781,0.171875 0.25,0.28125 0.17187,0.09375 0.48437,0.09375 0.23438,0 0.60938,-0.0625 z"
       id="path15"
       inkscape:connector-curvature="0"
       style="fill:#000000;fill-rule:nonzero" />
    <path
       d="m 66.67716,237.2126 164,0 0,44.72441 -164,0 z"
       id="path17"
       inkscape:connector-curvature="0"
       style="fill:#cfe2f3;fill-rule:evenodd" />
    <path
       d="m 66.67716,237.2126 164,0 0,44.72441 -164,0 z"
       id="path19"
       inkscape:connector-curvature="0"
       style="fill-rule:evenodd;stroke:#000000;stroke-width:1;stroke-linecap:butt;stroke-linejoin:round" />
    <path
       d="m 78.31388,265.4348 0,-11.45314 4.328125,0 q 1.140625,0 1.734375,0.10937 0.84375,0.14063 1.40625,0.53125 0.578125,0.39063 0.921875,1.10938 0.359375,0.70314 0.359375,1.56252 0,1.45312 -0.9375,2.46875 -0.921875,1.01562 -3.359375,1.01562 l -2.9375,0 0,4.65625 -1.515625,0 z m 1.515625,-6.01563 2.96875,0 q 1.46875,0 2.078125,-0.54687 0.625,-0.54688 0.625,-1.53125 0,-0.71875 -0.375,-1.23438 -0.359375,-0.51564 -0.953125,-0.67189 -0.375,-0.10937 -1.40625,-0.10937 l -2.9375,0 0,4.09377 z m 8.453125,1.85938 q 0,-2.29688 1.28125,-3.40625 1.078125,-0.92188 2.609375,-0.92188 1.71875,0 2.796875,1.125 1.09375,1.10938 1.09375,3.09375 0,1.59375 -0.484375,2.51563 -0.484375,0.92187 -1.40625,1.4375 -0.90625,0.5 -2,0.5 -1.734375,0 -2.8125,-1.10938 -1.078125,-1.125 -1.078125,-3.23437 z m 1.453125,0 q 0,1.59375 0.6875,2.39062 0.703125,0.79688 1.75,0.79688 1.046875,0 1.734375,-0.79688 0.703125,-0.79687 0.703125,-2.4375 0,-1.53125 -0.703125,-2.32812 -0.6875,-0.79688 -1.734375,-0.79688 -1.046875,0 -1.75,0.79688 -0.6875,0.78125 -0.6875,2.375 z m 7.945312,4.15625 0,-11.45314 1.40625,0 0,11.45314 -1.40625,0 z m 3.554683,0 0,-11.45314 1.40625,0 0,11.45314 -1.40625,0 z m 3.58594,-9.84377 0,-1.60937 1.40625,0 0,1.60937 -1.40625,0 z m 0,9.84377 0,-8.29688 1.40625,0 0,8.29688 -1.40625,0 z m 3.55469,0 0,-8.29688 1.26562,0 0,1.17188 q 0.90625,-1.35938 2.64063,-1.35938 0.75,0 1.375,0.26563 0.625,0.26562 0.9375,0.70312 0.3125,0.4375 0.4375,1.04688 0.0781,0.39062 0.0781,1.35937 l 0,5.10938 -1.40625,0 0,-5.04688 q 0,-0.85937 -0.17187,-1.28125 -0.15625,-0.4375 -0.57813,-0.6875 -0.40625,-0.25 -0.96875,-0.25 -0.90625,0 -1.5625,0.57813 -0.64062,0.5625 -0.64062,2.15625 l 0,4.53125 -1.40625,0 z m 8.63281,0.6875 1.375,0.20312 q 0.0781,0.64063 0.46875,0.92188 0.53125,0.39062 1.4375,0.39062 0.96875,0 1.5,-0.39062 0.53125,-0.39063 0.71875,-1.09375 0.10938,-0.42188 0.10938,-1.8125 -0.92188,1.09375 -2.29688,1.09375 -1.71875,0 -2.65625,-1.23438 -0.9375,-1.23437 -0.9375,-2.96875 0,-1.1875 0.42188,-2.1875 0.4375,-1 1.25,-1.54687 0.82812,-0.54688 1.92187,-0.54688 1.46875,0 2.42188,1.1875 l 0,-1 1.29687,0 0,7.17188 q 0,1.9375 -0.39062,2.75 -0.39063,0.8125 -1.25,1.28125 -0.85938,0.46875 -2.10938,0.46875 -1.48437,0 -2.40625,-0.67188 -0.90625,-0.67187 -0.875,-2.01562 z m 1.17188,-4.98438 q 0,1.625 0.64062,2.375 0.65625,0.75 1.625,0.75 0.96875,0 1.625,-0.73437 0.65625,-0.75 0.65625,-2.34375 0,-1.53125 -0.67187,-2.29688 -0.67188,-0.78125 -1.625,-0.78125 -0.9375,0 -1.59375,0.76563 -0.65625,0.76562 -0.65625,2.26562 z m 7.64843,0.60938 1.4375,-0.125 q 0.0937,0.85937 0.46875,1.42187 0.37501,0.54688 1.15626,0.89063 0.78125,0.32812 1.75,0.32812 0.875,0 1.53125,-0.25 0.67188,-0.26562 0.98438,-0.70312 0.32812,-0.45313 0.32812,-0.98438 0,-0.54687 -0.3125,-0.9375 -0.3125,-0.40625 -1.03125,-0.6875 -0.45312,-0.17187 -2.03125,-0.54687 -1.57812,-0.39063 -2.21876,-0.71875 -0.8125,-0.4375 -1.21875,-1.0625 -0.40625,-0.64063 -0.40625,-1.4375 0,-0.85938 0.48438,-1.60939 0.5,-0.76563 1.43751,-1.15625 0.95312,-0.39063 2.10937,-0.39063 1.28125,0 2.25,0.42188 0.96875,0.40625 1.48438,1.20312 0.53125,0.79689 0.57812,1.79689 l -1.45312,0.10938 q -0.125,-1.07813 -0.79688,-1.62502 -0.67187,-0.5625 -2,-0.5625 -1.375,0 -2,0.5 -0.62501,0.50002 -0.62501,1.21877 0,0.60937 0.43751,1.01562 0.4375,0.39063 2.28125,0.8125 1.85938,0.42188 2.54688,0.73438 1,0.45312 1.46875,1.17187 0.48437,0.70313 0.48437,1.625 0,0.90625 -0.53125,1.71875 -0.51562,0.8125 -1.5,1.26563 -0.98437,0.45312 -2.20312,0.45312 -1.5625,0 -2.60938,-0.45312 -1.04688,-0.46875 -1.65625,-1.375 -0.59375,-0.90625 -0.625,-2.0625 z m 14.07814,2.42187 0.20312,1.25 q -0.59375,0.125 -1.0625,0.125 -0.76562,0 -1.1875,-0.23437 -0.42187,-0.25 -0.59375,-0.64063 -0.17187,-0.40625 -0.17187,-1.67187 l 0,-4.76563 -1.03125,0 0,-1.09375 1.03125,0 0,-2.06251 1.40625,-0.84375 0,2.90626 1.40625,0 0,1.09375 -1.40625,0 0,4.84375 q 0,0.60938 0.0625,0.78125 0.0781,0.17188 0.25,0.28125 0.17187,0.0937 0.48437,0.0937 0.23438,0 0.60938,-0.0625 z m 6.78906,0.23438 q -0.78125,0.67187 -1.5,0.95312 -0.71875,0.26563 -1.54687,0.26563 -1.375,0 -2.10938,-0.67188 -0.73437,-0.67187 -0.73437,-1.70312 0,-0.60938 0.28125,-1.10938 0.28125,-0.51562 0.71875,-0.8125 0.45312,-0.3125 1.01562,-0.46875 0.42188,-0.10937 1.25,-0.20312 1.70313,-0.20313 2.51563,-0.48438 0,-0.29687 0,-0.375 0,-0.85937 -0.39063,-1.20312 -0.54687,-0.48438 -1.60937,-0.48438 -0.98438,0 -1.46875,0.35938 -0.46875,0.34375 -0.6875,1.21875 l -1.375,-0.1875 q 0.1875,-0.875 0.60937,-1.42188 0.4375,-0.54687 1.25,-0.82812 0.8125,-0.29688 1.875,-0.29688 1.0625,0 1.71875,0.25 0.67188,0.25 0.98438,0.625 0.3125,0.375 0.4375,0.95313 0.0781,0.35937 0.0781,1.29687 l 0,1.875 q 0,1.96875 0.0781,2.48438 0.0937,0.51562 0.35937,1 l -1.46875,0 q -0.21875,-0.4375 -0.28125,-1.03125 z m -0.10937,-3.14063 q -0.76563,0.3125 -2.29688,0.53125 -0.875,0.125 -1.23437,0.28125 -0.35938,0.15625 -0.5625,0.46875 -0.1875,0.29688 -0.1875,0.65625 0,0.5625 0.42187,0.9375 0.4375,0.375 1.25,0.375 0.8125,0 1.4375,-0.34375 0.64063,-0.35937 0.9375,-0.98437 0.23438,-0.46875 0.23438,-1.40625 l 0,-0.51563 z m 6.66406,2.90625 0.20312,1.25 q -0.59375,0.125 -1.0625,0.125 -0.76562,0 -1.1875,-0.23437 -0.42187,-0.25 -0.59375,-0.64063 -0.17187,-0.40625 -0.17187,-1.67187 l 0,-4.76563 -1.03125,0 0,-1.09375 1.03125,0 0,-2.06251 1.40625,-0.84375 0,2.90626 1.40625,0 0,1.09375 -1.40625,0 0,4.84375 q 0,0.60938 0.0625,0.78125 0.0781,0.17188 0.25,0.28125 0.17187,0.0937 0.48437,0.0937 0.23438,0 0.60938,-0.0625 z m 1.38281,-8.57814 0,-1.60937 1.40625,0 0,1.60937 -1.40625,0 z m 0,9.84377 0,-8.29688 1.40625,0 0,8.29688 -1.40625,0 z m 3.02344,-4.15625 q 0,-2.29688 1.28125,-3.40625 1.07812,-0.92188 2.60937,-0.92188 1.71875,0 2.79688,1.125 1.09375,1.10938 1.09375,3.09375 0,1.59375 -0.48438,2.51563 -0.48437,0.92187 -1.40625,1.4375 -0.90625,0.5 -2,0.5 -1.73437,0 -2.8125,-1.10938 -1.07812,-1.125 -1.07812,-3.23437 z m 1.45312,0 q 0,1.59375 0.6875,2.39062 0.70313,0.79688 1.75,0.79688 1.04688,0 1.73438,-0.79688 0.70312,-0.79687 0.70312,-2.4375 0,-1.53125 -0.70312,-2.32812 -0.6875,-0.79688 -1.73438,-0.79688 -1.04687,0 -1.75,0.79688 -0.6875,0.78125 -0.6875,2.375 z m 7.97657,4.15625 0,-8.29688 1.26562,0 0,1.17188 q 0.90625,-1.35938 2.64063,-1.35938 0.75,0 1.375,0.26563 0.625,0.26562 0.9375,0.70312 0.3125,0.4375 0.4375,1.04688 0.0781,0.39062 0.0781,1.35937 l 0,5.10938 -1.40625,0 0,-5.04688 q 0,-0.85937 -0.17187,-1.28125 -0.15625,-0.4375 -0.57813,-0.6875 -0.40625,-0.25 -0.96875,-0.25 -0.90625,0 -1.5625,0.57813 -0.64062,0.5625 -0.64062,2.15625 l 0,4.53125 -1.40625,0 z m 9.10156,0 0,-11.45314 5.07812,0 q 1.53125,0 2.32813,0.3125 0.79687,0.29687 1.26562,1.07812 0.48438,0.78127 0.48438,1.7344 0,1.21875 -0.79688,2.0625 -0.78125,0.82812 -2.4375,1.04687 0.60938,0.29688 0.92188,0.57813 0.65625,0.60937 1.25,1.51562 l 2,3.125 -1.90625,0 -1.51563,-2.39062 q -0.67187,-1.03125 -1.10937,-1.57813 -0.42188,-0.54687 -0.76563,-0.76562 -0.32812,-0.21875 -0.6875,-0.29688 -0.25,-0.0625 -0.84375,-0.0625 l -1.75,0 0,5.09375 -1.51562,0 z m 1.51562,-6.40625 3.25,0 q 1.04688,0 1.625,-0.20313 0.59375,-0.21875 0.89063,-0.6875 0.3125,-0.48437 0.3125,-1.03125 0,-0.8125 -0.59375,-1.32814 -0.59375,-0.53125 -1.85938,-0.53125 l -3.625,0 0,3.78127 z m 15.50782,3.73437 1.45312,0.17188 q -0.34375,1.28125 -1.28125,1.98437 -0.92187,0.70313 -2.35937,0.70313 -1.82813,0 -2.89063,-1.125 -1.0625,-1.125 -1.0625,-3.14063 0,-2.09375 1.07813,-3.25 1.07812,-1.15625 2.79687,-1.15625 1.65625,0 2.70313,1.14063 1.0625,1.125 1.0625,3.17187 0,0.125 0,0.375 l -6.1875,0 q 0.0781,1.375 0.76562,2.10938 0.70313,0.71875 1.73438,0.71875 0.78125,0 1.32812,-0.40625 0.54688,-0.40625 0.85938,-1.29688 z m -4.60938,-2.28125 4.625,0 q -0.0937,-1.04687 -0.53125,-1.5625 -0.67187,-0.8125 -1.73437,-0.8125 -0.96875,0 -1.64063,0.65625 -0.65625,0.64063 -0.71875,1.71875 z m 7.27344,2.46875 1.39062,-0.21875 q 0.10938,0.84375 0.64063,1.29688 0.54687,0.4375 1.5,0.4375 0.96875,0 1.4375,-0.39063 0.46875,-0.40625 0.46875,-0.9375 0,-0.46875 -0.40625,-0.75 -0.29688,-0.1875 -1.4375,-0.46875 -1.54688,-0.39062 -2.15625,-0.67187 -0.59375,-0.29688 -0.90625,-0.79688 -0.29688,-0.5 -0.29688,-1.10937 0,-0.5625 0.25,-1.03125 0.25,-0.46875 0.6875,-0.78125 0.32813,-0.25 0.89063,-0.40625 0.57812,-0.17188 1.21875,-0.17188 0.98437,0 1.71875,0.28125 0.73437,0.28125 1.07812,0.76563 0.35938,0.46875 0.5,1.28125 l -1.375,0.1875 q -0.0937,-0.64063 -0.54687,-1 -0.45313,-0.35938 -1.26563,-0.35938 -0.96875,0 -1.39062,0.32813 -0.40625,0.3125 -0.40625,0.73437 0,0.28125 0.17187,0.5 0.17188,0.21875 0.53125,0.375 0.21875,0.0781 1.25,0.35938 1.48438,0.39062 2.07813,0.65625 0.59375,0.25 0.92187,0.73437 0.34375,0.48438 0.34375,1.20313 0,0.70312 -0.42187,1.32812 -0.40625,0.60938 -1.1875,0.95313 -0.76563,0.34375 -1.73438,0.34375 -1.625,0 -2.46875,-0.67188 -0.84375,-0.67187 -1.07812,-2 z m 14,2.48438 0,-1.21875 q -0.96875,1.40625 -2.64063,1.40625 -0.73437,0 -1.375,-0.28125 -0.625,-0.28125 -0.9375,-0.70313 -0.3125,-0.4375 -0.4375,-1.04687 -0.0781,-0.42188 -0.0781,-1.3125 l 0,-5.14063 1.40625,0 0,4.59375 q 0,1.10938 0.0781,1.48438 0.14063,0.5625 0.5625,0.875 0.4375,0.3125 1.0625,0.3125 0.64063,0 1.1875,-0.3125 0.5625,-0.32813 0.78125,-0.89063 0.23438,-0.5625 0.23438,-1.625 l 0,-4.4375 1.40625,0 0,8.29688 -1.25,0 z m 3.42969,0 0,-11.45314 1.40625,0 0,11.45314 -1.40625,0 z m 6.64843,-1.26563 0.20313,1.25 q -0.59375,0.125 -1.0625,0.125 -0.76563,0 -1.1875,-0.23437 -0.42188,-0.25 -0.59375,-0.64063 -0.17188,-0.40625 -0.17188,-1.67187 l 0,-4.76563 -1.03125,0 0,-1.09375 1.03125,0 0,-2.06251 1.40625,-0.84375 0,2.90626 1.40625,0 0,1.09375 -1.40625,0 0,4.84375 q 0,0.60938 0.0625,0.78125 0.0781,0.17188 0.25,0.28125 0.17188,0.0937 0.48438,0.0937 0.23437,0 0.60937,-0.0625 z"
       id="path21"
       inkscape:connector-curvature="0"
       style="fill:#000000;fill-rule:nonzero" />
    <path
       d="m 86.69292,343.3386 120,0 0,40.47244 -120,0 z"
       id="path23"
       inkscape:connector-curvature="0"
       style="fill:#cfe2f3;fill-rule:evenodd" />
    <path
       d="m 86.69292,343.3386 120,0 0,40.47244 -120,0 z"
       id="path25"
       inkscape:connector-curvature="0"
       style="fill-rule:evenodd;stroke:#000000;stroke-width:1;stroke-linecap:butt;stroke-linejoin:round" />
    <path
       d="m 99.00542,369.4348 0,-11.45313 4.32813,0 q 1.14062,0 1.73437,0.10938 0.84375,0.14062 1.40625,0.53125 0.57813,0.39062 0.92188,1.10937 0.35937,0.70313 0.35937,1.5625 0,1.45313 -0.9375,2.46875 -0.92187,1.01563 -3.35937,1.01563 l -2.9375,0 0,4.65625 -1.51563,0 z m 1.51563,-6.01563 2.96875,0 q 1.46875,0 2.07812,-0.54687 0.625,-0.54688 0.625,-1.53125 0,-0.71875 -0.375,-1.23438 -0.35937,-0.51562 -0.95312,-0.67187 -0.375,-0.10938 -1.40625,-0.10938 l -2.9375,0 0,4.09375 z m 8.45312,1.85938 q 0,-2.29688 1.28125,-3.40625 1.07813,-0.92188 2.60938,-0.92188 1.71875,0 2.79687,1.125 1.09375,1.10938 1.09375,3.09375 0,1.59375 -0.48437,2.51563 -0.48438,0.92187 -1.40625,1.4375 -0.90625,0.5 -2,0.5 -1.73438,0 -2.8125,-1.10938 -1.07813,-1.125 -1.07813,-3.23437 z m 1.45313,0 q 0,1.59375 0.6875,2.39062 0.70312,0.79688 1.75,0.79688 1.04687,0 1.73437,-0.79688 0.70313,-0.79687 0.70313,-2.4375 0,-1.53125 -0.70313,-2.32812 -0.6875,-0.79688 -1.73437,-0.79688 -1.04688,0 -1.75,0.79688 -0.6875,0.78125 -0.6875,2.375 z m 7.94531,4.15625 0,-11.45313 1.40625,0 0,11.45313 -1.40625,0 z m 3.55469,0 0,-11.45313 1.40625,0 0,11.45313 -1.40625,0 z m 3.58593,-9.84375 0,-1.60938 1.40625,0 0,1.60938 -1.40625,0 z m 0,9.84375 0,-8.29688 1.40625,0 0,8.29688 -1.40625,0 z m 3.55469,0 0,-8.29688 1.26563,0 0,1.17188 q 0.90625,-1.35938 2.64062,-1.35938 0.75,0 1.375,0.26563 0.625,0.26562 0.9375,0.70312 0.3125,0.4375 0.4375,1.04688 0.0781,0.39062 0.0781,1.35937 l 0,5.10938 -1.40625,0 0,-5.04688 q 0,-0.85937 -0.17188,-1.28125 -0.15625,-0.4375 -0.57812,-0.6875 -0.40625,-0.25 -0.96875,-0.25 -0.90625,0 -1.5625,0.57813 -0.64063,0.5625 -0.64063,2.15625 l 0,4.53125 -1.40625,0 z m 8.63281,0.6875 1.375,0.20312 q 0.0781,0.64063 0.46875,0.92188 0.53125,0.39062 1.4375,0.39062 0.96875,0 1.5,-0.39062 0.53125,-0.39063 0.71875,-1.09375 0.10938,-0.42188 0.10938,-1.8125 -0.92188,1.09375 -2.29688,1.09375 -1.71875,0 -2.65625,-1.23438 -0.9375,-1.23437 -0.9375,-2.96875 0,-1.1875 0.42188,-2.1875 0.4375,-1 1.25,-1.54687 0.82812,-0.54688 1.92187,-0.54688 1.46875,0 2.42188,1.1875 l 0,-1 1.29687,0 0,7.17188 q 0,1.9375 -0.39062,2.75 -0.39063,0.8125 -1.25,1.28125 -0.85938,0.46875 -2.10938,0.46875 -1.48437,0 -2.40625,-0.67188 -0.90625,-0.67187 -0.875,-2.01562 z m 1.17188,-4.98438 q 0,1.625 0.64062,2.375 0.65625,0.75 1.625,0.75 0.96875,0 1.625,-0.73437 0.65625,-0.75 0.65625,-2.34375 0,-1.53125 -0.67187,-2.29688 -0.67188,-0.78125 -1.625,-0.78125 -0.9375,0 -1.59375,0.76563 -0.65625,0.76562 -0.65625,2.26562 z m 7.64844,0.60938 1.4375,-0.125 q 0.0937,0.85937 0.46875,1.42187 0.375,0.54688 1.15625,0.89063 0.78125,0.32812 1.75,0.32812 0.875,0 1.53125,-0.25 0.67187,-0.26562 0.98437,-0.70312 0.32813,-0.45313 0.32813,-0.98438 0,-0.54687 -0.3125,-0.9375 -0.3125,-0.40625 -1.03125,-0.6875 -0.45313,-0.17187 -2.03125,-0.54687 -1.57813,-0.39063 -2.21875,-0.71875 -0.8125,-0.4375 -1.21875,-1.0625 -0.40625,-0.64063 -0.40625,-1.4375 0,-0.85938 0.48437,-1.60938 0.5,-0.76562 1.4375,-1.15625 0.95313,-0.39062 2.10938,-0.39062 1.28125,0 2.25,0.42187 0.96875,0.40625 1.48437,1.20313 0.53125,0.79687 0.57813,1.79687 l -1.45313,0.10938 q -0.125,-1.07813 -0.79687,-1.625 -0.67188,-0.5625 -2,-0.5625 -1.375,0 -2,0.5 -0.625,0.5 -0.625,1.21875 0,0.60937 0.4375,1.01562 0.4375,0.39063 2.28125,0.8125 1.85937,0.42188 2.54687,0.73438 1,0.45312 1.46875,1.17187 0.48438,0.70313 0.48438,1.625 0,0.90625 -0.53125,1.71875 -0.51563,0.8125 -1.5,1.26563 -0.98438,0.45312 -2.20313,0.45312 -1.5625,0 -2.60937,-0.45312 -1.04688,-0.46875 -1.65625,-1.375 -0.59375,-0.90625 -0.625,-2.0625 z m 14.07812,2.42187 0.20313,1.25 q -0.59375,0.125 -1.0625,0.125 -0.76563,0 -1.1875,-0.23437 -0.42188,-0.25 -0.59375,-0.64063 -0.17188,-0.40625 -0.17188,-1.67187 l 0,-4.76563 -1.03125,0 0,-1.09375 1.03125,0 0,-2.0625 1.40625,-0.84375 0,2.90625 1.40625,0 0,1.09375 -1.40625,0 0,4.84375 q 0,0.60938 0.0625,0.78125 0.0781,0.17188 0.25,0.28125 0.17188,0.0937 0.48438,0.0937 0.23437,0 0.60937,-0.0625 z m 6.78906,0.23438 q -0.78125,0.67187 -1.5,0.95312 -0.71875,0.26563 -1.54687,0.26563 -1.375,0 -2.10938,-0.67188 -0.73437,-0.67187 -0.73437,-1.70312 0,-0.60938 0.28125,-1.10938 0.28125,-0.51562 0.71875,-0.8125 0.45312,-0.3125 1.01562,-0.46875 0.42188,-0.10937 1.25,-0.20312 1.70313,-0.20313 2.51563,-0.48438 0,-0.29687 0,-0.375 0,-0.85937 -0.39063,-1.20312 -0.54687,-0.48438 -1.60937,-0.48438 -0.98438,0 -1.46875,0.35938 -0.46875,0.34375 -0.6875,1.21875 l -1.375,-0.1875 q 0.1875,-0.875 0.60937,-1.42188 0.4375,-0.54687 1.25,-0.82812 0.8125,-0.29688 1.875,-0.29688 1.0625,0 1.71875,0.25 0.67188,0.25 0.98438,0.625 0.3125,0.375 0.4375,0.95313 0.0781,0.35937 0.0781,1.29687 l 0,1.875 q 0,1.96875 0.0781,2.48438 0.0937,0.51562 0.35937,1 l -1.46875,0 q -0.21875,-0.4375 -0.28125,-1.03125 z m -0.10937,-3.14063 q -0.76563,0.3125 -2.29688,0.53125 -0.875,0.125 -1.23437,0.28125 -0.35938,0.15625 -0.5625,0.46875 -0.1875,0.29688 -0.1875,0.65625 0,0.5625 0.42187,0.9375 0.4375,0.375 1.25,0.375 0.8125,0 1.4375,-0.34375 0.64063,-0.35937 0.9375,-0.98437 0.23438,-0.46875 0.23438,-1.40625 l 0,-0.51563 z m 6.66406,2.90625 0.20313,1.25 q -0.59375,0.125 -1.0625,0.125 -0.76563,0 -1.1875,-0.23437 -0.42188,-0.25 -0.59375,-0.64063 -0.17188,-0.40625 -0.17188,-1.67187 l 0,-4.76563 -1.03125,0 0,-1.09375 1.03125,0 0,-2.0625 1.40625,-0.84375 0,2.90625 1.40625,0 0,1.09375 -1.40625,0 0,4.84375 q 0,0.60938 0.0625,0.78125 0.0781,0.17188 0.25,0.28125 0.17188,0.0937 0.48438,0.0937 0.23437,0 0.60937,-0.0625 z m 1.38281,-8.57812 0,-1.60938 1.40625,0 0,1.60938 -1.40625,0 z m 0,9.84375 0,-8.29688 1.40625,0 0,8.29688 -1.40625,0 z m 3.02344,-4.15625 q 0,-2.29688 1.28125,-3.40625 1.07813,-0.92188 2.60938,-0.92188 1.71875,0 2.79687,1.125 1.09375,1.10938 1.09375,3.09375 0,1.59375 -0.48437,2.51563 -0.48438,0.92187 -1.40625,1.4375 -0.90625,0.5 -2,0.5 -1.73438,0 -2.8125,-1.10938 -1.07813,-1.125 -1.07813,-3.23437 z m 1.45313,0 q 0,1.59375 0.6875,2.39062 0.70312,0.79688 1.75,0.79688 1.04687,0 1.73437,-0.79688 0.70313,-0.79687 0.70313,-2.4375 0,-1.53125 -0.70313,-2.32812 -0.6875,-0.79688 -1.73437,-0.79688 -1.04688,0 -1.75,0.79688 -0.6875,0.78125 -0.6875,2.375 z m 7.97656,4.15625 0,-8.29688 1.26562,0 0,1.17188 q 0.90625,-1.35938 2.64063,-1.35938 0.75,0 1.375,0.26563 0.625,0.26562 0.9375,0.70312 0.3125,0.4375 0.4375,1.04688 0.0781,0.39062 0.0781,1.35937 l 0,5.10938 -1.40625,0 0,-5.04688 q 0,-0.85937 -0.17187,-1.28125 -0.15625,-0.4375 -0.57813,-0.6875 -0.40625,-0.25 -0.96875,-0.25 -0.90625,0 -1.5625,0.57813 -0.64062,0.5625 -0.64062,2.15625 l 0,4.53125 -1.40625,0 z"
       id="path27"
       inkscape:connector-curvature="0"
       style="fill:#000000;fill-rule:nonzero" />
    <path
       d="m 86.69292,423.52756 120,0 0,40.47244 -120,0 z"
       id="path29"
       inkscape:connector-curvature="0"
       style="fill:#cfe2f3;fill-rule:evenodd" />
    <path
       d="m 86.69292,423.52756 120,0 0,40.47244 -120,0 z"
       id="path31"
       inkscape:connector-curvature="0"
       style="fill-rule:evenodd;stroke:#000000;stroke-width:1;stroke-linecap:butt;stroke-linejoin:round" />
    <path
       d="m 106.08745,449.62378 0,-11.45313 2.28125,0 2.71875,8.10938 q 0.375,1.125 0.54688,1.6875 0.1875,-0.625 0.60937,-1.82813 l 2.73438,-7.96875 2.04687,0 0,11.45313 -1.46875,0 0,-9.59375 -3.32812,9.59375 -1.35938,0 -3.3125,-9.75 0,9.75 -1.46875,0 z m 18.64063,0 0,-1.21875 q -0.96875,1.40625 -2.64063,1.40625 -0.73437,0 -1.375,-0.28125 -0.625,-0.28125 -0.9375,-0.70313 -0.3125,-0.4375 -0.4375,-1.04687 -0.0781,-0.42188 -0.0781,-1.3125 l 0,-5.14063 1.40625,0 0,4.59375 q 0,1.10938 0.0781,1.48438 0.14063,0.5625 0.5625,0.875 0.4375,0.3125 1.0625,0.3125 0.64063,0 1.1875,-0.3125 0.5625,-0.32813 0.78125,-0.89063 0.23438,-0.5625 0.23438,-1.625 l 0,-4.4375 1.40625,0 0,8.29688 -1.25,0 z m 3.46093,0 0,-8.29688 1.26563,0 0,1.17188 q 0.90625,-1.35938 2.64062,-1.35938 0.75,0 1.375,0.26563 0.625,0.26562 0.9375,0.70312 0.3125,0.4375 0.4375,1.04688 0.0781,0.39062 0.0781,1.35937 l 0,5.10938 -1.40625,0 0,-5.04688 q 0,-0.85937 -0.17188,-1.28125 -0.15625,-0.4375 -0.57812,-0.6875 -0.40625,-0.25 -0.96875,-0.25 -0.90625,0 -1.5625,0.57813 -0.64063,0.5625 -0.64063,2.15625 l 0,4.53125 -1.40625,0 z m 8.89844,-9.84375 0,-1.60938 1.40625,0 0,1.60938 -1.40625,0 z m 0,9.84375 0,-8.29688 1.40625,0 0,8.29688 -1.40625,0 z m 8.96094,-3.04688 1.39062,0.1875 q -0.23437,1.42188 -1.17187,2.23438 -0.92188,0.8125 -2.28125,0.8125 -1.70313,0 -2.75,-1.10938 -1.03125,-1.125 -1.03125,-3.20312 0,-1.34375 0.4375,-2.34375 0.45312,-1.01563 1.35937,-1.51563 0.92188,-0.5 1.98438,-0.5 1.35937,0 2.21875,0.6875 0.85937,0.67188 1.09375,1.9375 l -1.35938,0.20313 q -0.20312,-0.82813 -0.70312,-1.25 -0.48438,-0.42188 -1.1875,-0.42188 -1.0625,0 -1.73438,0.76563 -0.65625,0.75 -0.65625,2.40625 0,1.67187 0.64063,2.4375 0.64062,0.75 1.67187,0.75 0.82813,0 1.375,-0.5 0.5625,-0.51563 0.70313,-1.57813 z m 2.59375,-6.79687 0,-1.60938 1.40625,0 0,1.60938 -1.40625,0 z m 0,9.84375 0,-8.29688 1.40625,0 0,8.29688 -1.40625,0 z m 3.55468,3.1875 0,-11.48438 1.28125,0 0,1.07813 q 0.45313,-0.64063 1.01563,-0.95313 0.57812,-0.3125 1.39062,-0.3125 1.0625,0 1.875,0.54688 0.8125,0.54687 1.21875,1.54687 0.42188,0.98438 0.42188,2.17188 0,1.28125 -0.46875,2.29687 -0.45313,1.01563 -1.32813,1.5625 -0.85937,0.54688 -1.82812,0.54688 -0.70313,0 -1.26563,-0.29688 -0.54687,-0.29687 -0.90625,-0.75 l 0,4.04688 -1.40625,0 z m 1.26563,-7.29688 q 0,1.60938 0.64062,2.375 0.65625,0.76563 1.57813,0.76563 0.9375,0 1.60937,-0.79688 0.67188,-0.79687 0.67188,-2.45312 0,-1.59375 -0.65625,-2.375 -0.65625,-0.79688 -1.5625,-0.79688 -0.89063,0 -1.59375,0.84375 -0.6875,0.84375 -0.6875,2.4375 z m 13.03906,3.07813 q -0.78125,0.67187 -1.5,0.95312 -0.71875,0.26563 -1.54687,0.26563 -1.375,0 -2.10938,-0.67188 -0.73437,-0.67187 -0.73437,-1.70312 0,-0.60938 0.28125,-1.10938 0.28125,-0.51562 0.71875,-0.8125 0.45312,-0.3125 1.01562,-0.46875 0.42188,-0.10937 1.25,-0.20312 1.70313,-0.20313 2.51563,-0.48438 0,-0.29687 0,-0.375 0,-0.85937 -0.39063,-1.20312 -0.54687,-0.48438 -1.60937,-0.48438 -0.98438,0 -1.46875,0.35938 -0.46875,0.34375 -0.6875,1.21875 l -1.375,-0.1875 q 0.1875,-0.875 0.60937,-1.42188 0.4375,-0.54687 1.25,-0.82812 0.8125,-0.29688 1.875,-0.29688 1.0625,0 1.71875,0.25 0.67188,0.25 0.98438,0.625 0.3125,0.375 0.4375,0.95313 0.0781,0.35937 0.0781,1.29687 l 0,1.875 q 0,1.96875 0.0781,2.48438 0.0937,0.51562 0.35937,1 l -1.46875,0 q -0.21875,-0.4375 -0.28125,-1.03125 z m -0.10937,-3.14063 q -0.76563,0.3125 -2.29688,0.53125 -0.875,0.125 -1.23437,0.28125 -0.35938,0.15625 -0.5625,0.46875 -0.1875,0.29688 -0.1875,0.65625 0,0.5625 0.42187,0.9375 0.4375,0.375 1.25,0.375 0.8125,0 1.4375,-0.34375 0.64063,-0.35937 0.9375,-0.98437 0.23438,-0.46875 0.23438,-1.40625 l 0,-0.51563 z m 3.57031,4.17188 0,-11.45313 1.40625,0 0,11.45313 -1.40625,0 z m 3.58594,-9.84375 0,-1.60938 1.40625,0 0,1.60938 -1.40625,0 z m 0,9.84375 0,-8.29688 1.40625,0 0,8.29688 -1.40625,0 z m 6.61718,-1.26563 0.20313,1.25 q -0.59375,0.125 -1.0625,0.125 -0.76563,0 -1.1875,-0.23437 -0.42188,-0.25 -0.59375,-0.64063 -0.17188,-0.40625 -0.17188,-1.67187 l 0,-4.76563 -1.03125,0 0,-1.09375 1.03125,0 0,-2.0625 1.40625,-0.84375 0,2.90625 1.40625,0 0,1.09375 -1.40625,0 0,4.84375 q 0,0.60938 0.0625,0.78125 0.0781,0.17188 0.25,0.28125 0.17188,0.0937 0.48438,0.0937 0.23437,0 0.60937,-0.0625 z m 1.32032,4.46875 -0.15625,-1.32812 q 0.45312,0.125 0.79687,0.125 0.46875,0 0.75,-0.15625 0.28125,-0.15625 0.46875,-0.4375 0.125,-0.20313 0.42188,-1.04688 0.0469,-0.10937 0.125,-0.34375 l -3.14063,-8.3125 1.51563,0 1.71875,4.79688 q 0.34375,0.92187 0.60937,1.92187 0.23438,-0.96875 0.57813,-1.89062 l 1.76562,-4.82813 1.40625,0 -3.15625,8.4375 q -0.5,1.375 -0.78125,1.89063 -0.375,0.6875 -0.85937,1.01562 -0.48438,0.32813 -1.15625,0.32813 -0.40625,0 -0.90625,-0.17188 z"
       id="path33"
       inkscape:connector-curvature="0"
       style="fill:#000000;fill-rule:nonzero" />
    <path
       d="m 298.6929,239.33858 120,0 0,40.47246 -120,0 z"
       id="path35"
       inkscape:connector-curvature="0"
       style="fill:#cfe2f3;fill-rule:evenodd" />
    <path
       d="m 298.6929,239.33858 120,0 0,40.47246 -120,0 z"
       id="path37"
       inkscape:connector-curvature="0"
       style="fill-rule:evenodd;stroke:#000000;stroke-width:1;stroke-linecap:butt;stroke-linejoin:round" />
    <path
       d="m 331.4976,265.4348 0,-11.45314 8.28125,0 0,1.34375 -6.76563,0 0,3.51564 6.34375,0 0,1.34375 -6.34375,0 0,3.89063 7.03125,0 0,1.35937 -8.54687,0 z m 10.4375,0 0,-11.45314 1.40625,0 0,11.45314 -1.40625,0 z m 9.25781,-2.67188 1.45313,0.17188 q -0.34375,1.28125 -1.28125,1.98437 -0.92188,0.70313 -2.35938,0.70313 -1.82812,0 -2.89062,-1.125 -1.0625,-1.125 -1.0625,-3.14063 0,-2.09375 1.07812,-3.25 1.07813,-1.15625 2.79688,-1.15625 1.65625,0 2.70312,1.14063 1.0625,1.125 1.0625,3.17187 0,0.125 0,0.375 l -6.1875,0 q 0.0781,1.375 0.76563,2.10938 0.70312,0.71875 1.73437,0.71875 0.78125,0 1.32813,-0.40625 0.54687,-0.40625 0.85937,-1.29688 z m -4.60937,-2.28125 4.625,0 q -0.0937,-1.04687 -0.53125,-1.5625 -0.67188,-0.8125 -1.73438,-0.8125 -0.96875,0 -1.64062,0.65625 -0.65625,0.64063 -0.71875,1.71875 z m 13.24218,1.90625 1.39063,0.1875 q -0.23438,1.42188 -1.17188,2.23438 -0.92187,0.8125 -2.28125,0.8125 -1.70312,0 -2.75,-1.10938 -1.03125,-1.125 -1.03125,-3.20312 0,-1.34375 0.4375,-2.34375 0.45313,-1.01563 1.35938,-1.51563 0.92187,-0.5 1.98437,-0.5 1.35938,0 2.21875,0.6875 0.85938,0.67188 1.09375,1.9375 l -1.35937,0.20313 q -0.20313,-0.82813 -0.70313,-1.25 -0.48437,-0.42188 -1.1875,-0.42188 -1.0625,0 -1.73437,0.76563 -0.65625,0.75 -0.65625,2.40625 0,1.67187 0.64062,2.4375 0.64063,0.75 1.67188,0.75 0.82812,0 1.375,-0.5 0.5625,-0.51563 0.70312,-1.57813 z m 5.65625,1.78125 0.20313,1.25 q -0.59375,0.125 -1.0625,0.125 -0.76563,0 -1.1875,-0.23437 -0.42188,-0.25 -0.59375,-0.64063 -0.17188,-0.40625 -0.17188,-1.67187 l 0,-4.76563 -1.03125,0 0,-1.09375 1.03125,0 0,-2.06251 1.40625,-0.84375 0,2.90626 1.40625,0 0,1.09375 -1.40625,0 0,4.84375 q 0,0.60938 0.0625,0.78125 0.0781,0.17188 0.25,0.28125 0.17188,0.0937 0.48438,0.0937 0.23437,0 0.60937,-0.0625 z m 1.38282,-8.57814 0,-1.60937 1.40625,0 0,1.60937 -1.40625,0 z m 0,9.84377 0,-8.29688 1.40625,0 0,8.29688 -1.40625,0 z m 3.02343,-4.15625 q 0,-2.29688 1.28125,-3.40625 1.07813,-0.92188 2.60938,-0.92188 1.71875,0 2.79687,1.125 1.09375,1.10938 1.09375,3.09375 0,1.59375 -0.48437,2.51563 -0.48438,0.92187 -1.40625,1.4375 -0.90625,0.5 -2,0.5 -1.73438,0 -2.8125,-1.10938 -1.07813,-1.125 -1.07813,-3.23437 z m 1.45313,0 q 0,1.59375 0.6875,2.39062 0.70312,0.79688 1.75,0.79688 1.04687,0 1.73437,-0.79688 0.70313,-0.79687 0.70313,-2.4375 0,-1.53125 -0.70313,-2.32812 -0.6875,-0.79688 -1.73437,-0.79688 -1.04688,0 -1.75,0.79688 -0.6875,0.78125 -0.6875,2.375 z m 7.97656,4.15625 0,-8.29688 1.26563,0 0,1.17188 q 0.90625,-1.35938 2.64062,-1.35938 0.75,0 1.375,0.26563 0.625,0.26562 0.9375,0.70312 0.3125,0.4375 0.4375,1.04688 0.0781,0.39062 0.0781,1.35937 l 0,5.10938 -1.40625,0 0,-5.04688 q 0,-0.85937 -0.17188,-1.28125 -0.15625,-0.4375 -0.57812,-0.6875 -0.40625,-0.25 -0.96875,-0.25 -0.90625,0 -1.5625,0.57813 -0.64063,0.5625 -0.64063,2.15625 l 0,4.53125 -1.40625,0 z"
       id="path39"
       inkscape:connector-curvature="0"
       style="fill:#000000;fill-rule:nonzero" />
    <path
       d="m 86.69292,503.44095 120,0 0,40.47244 -120,0 z"
       id="path41"
       inkscape:connector-curvature="0"
       style="fill:#cfe2f3;fill-rule:evenodd" />
    <path
       d="m 86.69292,503.44095 120,0 0,40.47244 -120,0 z"
       id="path43"
       inkscape:connector-curvature="0"
       style="fill-rule:evenodd;stroke:#000000;stroke-width:1;stroke-linecap:butt;stroke-linejoin:round" />
    <path
       d="m 123.48589,529.5372 0,-11.45313 3.95312,0 q 1.32813,0 2.03125,0.15625 0.98438,0.23438 1.6875,0.82813 0.90625,0.76562 1.34375,1.95312 0.45313,1.1875 0.45313,2.71875 0,1.3125 -0.3125,2.32813 -0.29688,1 -0.78125,1.65625 -0.46875,0.65625 -1.03125,1.04687 -0.5625,0.375 -1.375,0.57813 -0.79688,0.1875 -1.82813,0.1875 l -4.14062,0 z m 1.51562,-1.35938 2.45313,0 q 1.125,0 1.76562,-0.20312 0.65625,-0.21875 1.03125,-0.59375 0.54688,-0.54688 0.84375,-1.45313 0.29688,-0.90625 0.29688,-2.20312 0,-1.79688 -0.59375,-2.76563 -0.57813,-0.96875 -1.42188,-1.29687 -0.60937,-0.23438 -1.96875,-0.23438 l -2.40625,0 0,8.75 z m 9.86719,-8.48437 0,-1.60938 1.40625,0 0,1.60938 -1.40625,0 z m 0,9.84375 0,-8.29688 1.40625,0 0,8.29688 -1.40625,0 z m 2.99219,-2.48438 1.39062,-0.21875 q 0.10938,0.84375 0.64063,1.29688 0.54687,0.4375 1.5,0.4375 0.96875,0 1.4375,-0.39063 0.46875,-0.40625 0.46875,-0.9375 0,-0.46875 -0.40625,-0.75 -0.29688,-0.1875 -1.4375,-0.46875 -1.54688,-0.39062 -2.15625,-0.67187 -0.59375,-0.29688 -0.90625,-0.79688 -0.29688,-0.5 -0.29688,-1.10937 0,-0.5625 0.25,-1.03125 0.25,-0.46875 0.6875,-0.78125 0.32813,-0.25 0.89063,-0.40625 0.57812,-0.17188 1.21875,-0.17188 0.98437,0 1.71875,0.28125 0.73437,0.28125 1.07812,0.76563 0.35938,0.46875 0.5,1.28125 l -1.375,0.1875 q -0.0937,-0.64063 -0.54687,-1 -0.45313,-0.35938 -1.26563,-0.35938 -0.96875,0 -1.39062,0.32813 -0.40625,0.3125 -0.40625,0.73437 0,0.28125 0.17187,0.5 0.17188,0.21875 0.53125,0.375 0.21875,0.0781 1.25,0.35938 1.48438,0.39062 2.07813,0.65625 0.59375,0.25 0.92187,0.73437 0.34375,0.48438 0.34375,1.20313 0,0.70312 -0.42187,1.32812 -0.40625,0.60938 -1.1875,0.95313 -0.76563,0.34375 -1.73438,0.34375 -1.625,0 -2.46875,-0.67188 -0.84375,-0.67187 -1.07812,-2 z m 11.625,1.21875 0.20312,1.25 q -0.59375,0.125 -1.0625,0.125 -0.76562,0 -1.1875,-0.23437 -0.42187,-0.25 -0.59375,-0.64063 -0.17187,-0.40625 -0.17187,-1.67187 l 0,-4.76563 -1.03125,0 0,-1.09375 1.03125,0 0,-2.0625 1.40625,-0.84375 0,2.90625 1.40625,0 0,1.09375 -1.40625,0 0,4.84375 q 0,0.60938 0.0625,0.78125 0.0781,0.17188 0.25,0.28125 0.17187,0.0937 0.48437,0.0937 0.23438,0 0.60938,-0.0625 z m 1.36718,1.26563 0,-8.29688 1.26563,0 0,1.25 q 0.48437,-0.875 0.89062,-1.15625 0.40625,-0.28125 0.90625,-0.28125 0.70313,0 1.4375,0.45313 l -0.48437,1.29687 q -0.51563,-0.29687 -1.03125,-0.29687 -0.45313,0 -0.82813,0.28125 -0.35937,0.26562 -0.51562,0.76562 -0.23438,0.75 -0.23438,1.64063 l 0,4.34375 -1.40625,0 z m 5.34375,-9.84375 0,-1.60938 1.40625,0 0,1.60938 -1.40625,0 z m 0,9.84375 0,-8.29688 1.40625,0 0,8.29688 -1.40625,0 z m 8.96094,-3.04688 1.39063,0.1875 q -0.23438,1.42188 -1.17188,2.23438 -0.92187,0.8125 -2.28125,0.8125 -1.70312,0 -2.75,-1.10938 -1.03125,-1.125 -1.03125,-3.20312 0,-1.34375 0.4375,-2.34375 0.45313,-1.01563 1.35938,-1.51563 0.92187,-0.5 1.98437,-0.5 1.35938,0 2.21875,0.6875 0.85938,0.67188 1.09375,1.9375 l -1.35937,0.20313 q -0.20313,-0.82813 -0.70313,-1.25 -0.48437,-0.42188 -1.1875,-0.42188 -1.0625,0 -1.73437,0.76563 -0.65625,0.75 -0.65625,2.40625 0,1.67187 0.64062,2.4375 0.64063,0.75 1.67188,0.75 0.82812,0 1.375,-0.5 0.5625,-0.51563 0.70312,-1.57813 z m 5.65625,1.78125 0.20313,1.25 q -0.59375,0.125 -1.0625,0.125 -0.76563,0 -1.1875,-0.23437 -0.42188,-0.25 -0.59375,-0.64063 -0.17188,-0.40625 -0.17188,-1.67187 l 0,-4.76563 -1.03125,0 0,-1.09375 1.03125,0 0,-2.0625 1.40625,-0.84375 0,2.90625 1.40625,0 0,1.09375 -1.40625,0 0,4.84375 q 0,0.60938 0.0625,0.78125 0.0781,0.17188 0.25,0.28125 0.17188,0.0937 0.48438,0.0937 0.23437,0 0.60937,-0.0625 z"
       id="path45"
       inkscape:connector-curvature="0"
       style="fill:#000000;fill-rule:nonzero" />
    <path
       d="m 93.76378,583.3543 105.85826,0 0,44.72443 -105.85826,0 z"
       id="path47"
       inkscape:connector-curvature="0"
       style="fill:#cfe2f3;fill-rule:evenodd" />
    <path
       d="m 93.76378,583.3543 105.85826,0 0,44.72443 -105.85826,0 z"
       id="path49"
       inkscape:connector-curvature="0"
       style="fill-rule:evenodd;stroke:#000000;stroke-width:1;stroke-linecap:butt;stroke-linejoin:round" />
    <path
       d="m 128.73198,607.88904 1.4375,-0.125 q 0.0937,0.85938 0.46875,1.42188 0.375,0.54687 1.15625,0.89062 0.78125,0.32813 1.75,0.32813 0.875,0 1.53125,-0.25 0.67187,-0.26563 0.98437,-0.70313 0.32813,-0.45312 0.32813,-0.98437 0,-0.54688 -0.3125,-0.9375 -0.3125,-0.40625 -1.03125,-0.6875 -0.45313,-0.17188 -2.03125,-0.54688 -1.57813,-0.39062 -2.21875,-0.71875 -0.8125,-0.4375 -1.21875,-1.0625 -0.40625,-0.64062 -0.40625,-1.4375 0,-0.85937 0.48437,-1.60937 0.5,-0.76563 1.4375,-1.15625 0.95313,-0.39063 2.10938,-0.39063 1.28125,0 2.25,0.42188 0.96875,0.40625 1.48437,1.20312 0.53125,0.79688 0.57813,1.79688 l -1.45313,0.10937 q -0.125,-1.07812 -0.79687,-1.625 -0.67188,-0.5625 -2,-0.5625 -1.375,0 -2,0.5 -0.625,0.5 -0.625,1.21875 0,0.60938 0.4375,1.01563 0.4375,0.39062 2.28125,0.8125 1.85937,0.42187 2.54687,0.73437 1,0.45313 1.46875,1.17188 0.48438,0.70312 0.48438,1.625 0,0.90625 -0.53125,1.71875 -0.51563,0.8125 -1.5,1.26562 -0.98438,0.45313 -2.20313,0.45313 -1.5625,0 -2.60937,-0.45313 -1.04688,-0.46875 -1.65625,-1.375 -0.59375,-0.90625 -0.625,-2.0625 z m 14.07812,2.42188 0.20313,1.25 q -0.59375,0.125 -1.0625,0.125 -0.76563,0 -1.1875,-0.23438 -0.42188,-0.25 -0.59375,-0.64062 -0.17188,-0.40625 -0.17188,-1.67188 l 0,-4.76562 -1.03125,0 0,-1.09375 1.03125,0 0,-2.0625 1.40625,-0.84375 0,2.90625 1.40625,0 0,1.09375 -1.40625,0 0,4.84375 q 0,0.60937 0.0625,0.78125 0.0781,0.17187 0.25,0.28125 0.17188,0.0937 0.48438,0.0937 0.23437,0 0.60937,-0.0625 z m 6.78907,0.23437 q -0.78125,0.67188 -1.5,0.95313 -0.71875,0.26562 -1.54688,0.26562 -1.375,0 -2.10937,-0.67187 -0.73438,-0.67188 -0.73438,-1.70313 0,-0.60937 0.28125,-1.10937 0.28125,-0.51563 0.71875,-0.8125 0.45313,-0.3125 1.01563,-0.46875 0.42187,-0.10938 1.25,-0.20313 1.70312,-0.20312 2.51562,-0.48437 0,-0.29688 0,-0.375 0,-0.85938 -0.39062,-1.20313 -0.54688,-0.48437 -1.60938,-0.48437 -0.98437,0 -1.46875,0.35937 -0.46875,0.34375 -0.6875,1.21875 l -1.375,-0.1875 q 0.1875,-0.875 0.60938,-1.42187 0.4375,-0.54688 1.25,-0.82813 0.8125,-0.29687 1.875,-0.29687 1.0625,0 1.71875,0.25 0.67187,0.25 0.98437,0.625 0.3125,0.375 0.4375,0.95312 0.0781,0.35938 0.0781,1.29688 l 0,1.875 q 0,1.96875 0.0781,2.48437 0.0937,0.51563 0.35938,1 l -1.46875,0 q -0.21875,-0.4375 -0.28125,-1.03125 z m -0.10938,-3.14062 q -0.76562,0.3125 -2.29687,0.53125 -0.875,0.125 -1.23438,0.28125 -0.35937,0.15625 -0.5625,0.46875 -0.1875,0.29687 -0.1875,0.65625 0,0.5625 0.42188,0.9375 0.4375,0.375 1.25,0.375 0.8125,0 1.4375,-0.34375 0.64062,-0.35938 0.9375,-0.98438 0.23437,-0.46875 0.23437,-1.40625 l 0,-0.51562 z m 6.66406,2.90625 0.20313,1.25 q -0.59375,0.125 -1.0625,0.125 -0.76563,0 -1.1875,-0.23438 -0.42188,-0.25 -0.59375,-0.64062 -0.17188,-0.40625 -0.17188,-1.67188 l 0,-4.76562 -1.03125,0 0,-1.09375 1.03125,0 0,-2.0625 1.40625,-0.84375 0,2.90625 1.40625,0 0,1.09375 -1.40625,0 0,4.84375 q 0,0.60937 0.0625,0.78125 0.0781,0.17187 0.25,0.28125 0.17188,0.0937 0.48438,0.0937 0.23437,0 0.60937,-0.0625 z m 7.05469,-1.40625 1.45313,0.17187 q -0.34375,1.28125 -1.28125,1.98438 -0.92188,0.70312 -2.35938,0.70312 -1.82812,0 -2.89062,-1.125 -1.0625,-1.125 -1.0625,-3.14062 0,-2.09375 1.07812,-3.25 1.07813,-1.15625 2.79688,-1.15625 1.65625,0 2.70312,1.14062 1.0625,1.125 1.0625,3.17188 0,0.125 0,0.375 l -6.1875,0 q 0.0781,1.375 0.76563,2.10937 0.70312,0.71875 1.73437,0.71875 0.78125,0 1.32813,-0.40625 0.54687,-0.40625 0.85937,-1.29687 z m -4.60937,-2.28125 4.625,0 q -0.0937,-1.04688 -0.53125,-1.5625 -0.67188,-0.8125 -1.73438,-0.8125 -0.96875,0 -1.64062,0.65625 -0.65625,0.64062 -0.71875,1.71875 z"
       id="path51"
       inkscape:connector-curvature="0"
       style="fill:#000000;fill-rule:nonzero" />
    <path
       d="m 273.32285,420.98425 212.59842,0 0,44.7244 -212.59842,0 z"
       id="path53"
       inkscape:connector-curvature="0"
       style="fill:#cfe2f3;fill-rule:evenodd" />
    <path
       d="m 273.32285,420.98425 212.59842,0 0,44.7244 -212.59842,0 z"
       id="path55"
       inkscape:connector-curvature="0"
       style="fill-rule:evenodd;stroke:#000000;stroke-width:1;stroke-linecap:butt;stroke-linejoin:round" />
    <path
       d="m 293.74313,449.20645 0,-11.45312 5.07812,0 q 1.53125,0 2.32813,0.3125 0.79687,0.29687 1.26562,1.07812 0.48438,0.78125 0.48438,1.73438 0,1.21875 -0.79688,2.0625 -0.78125,0.82812 -2.4375,1.04687 0.60938,0.29688 0.92188,0.57813 0.65625,0.60937 1.25,1.51562 l 2,3.125 -1.90625,0 -1.51563,-2.39062 q -0.67187,-1.03125 -1.10937,-1.57813 -0.42188,-0.54687 -0.76563,-0.76562 -0.32812,-0.21875 -0.6875,-0.29688 -0.25,-0.0625 -0.84375,-0.0625 l -1.75,0 0,5.09375 -1.51562,0 z m 1.51562,-6.40625 3.25,0 q 1.04688,0 1.625,-0.20312 0.59375,-0.21875 0.89063,-0.6875 0.3125,-0.48438 0.3125,-1.03125 0,-0.8125 -0.59375,-1.32813 -0.59375,-0.53125 -1.85938,-0.53125 l -3.625,0 0,3.78125 z m 15.50782,3.73438 1.45312,0.17187 q -0.34375,1.28125 -1.28125,1.98438 -0.92187,0.70312 -2.35937,0.70312 -1.82813,0 -2.89063,-1.125 -1.0625,-1.125 -1.0625,-3.14062 0,-2.09375 1.07813,-3.25 1.07812,-1.15625 2.79687,-1.15625 1.65625,0 2.70313,1.14062 1.0625,1.125 1.0625,3.17188 0,0.125 0,0.375 l -6.1875,0 q 0.0781,1.375 0.76562,2.10937 0.70313,0.71875 1.73438,0.71875 0.78125,0 1.32812,-0.40625 0.54688,-0.40625 0.85938,-1.29687 z m -4.60938,-2.28125 4.625,0 q -0.0937,-1.04688 -0.53125,-1.5625 -0.67187,-0.8125 -1.73437,-0.8125 -0.96875,0 -1.64063,0.65625 -0.65625,0.64062 -0.71875,1.71875 z m 7.57031,5.64062 1.375,0.20313 q 0.0781,0.64062 0.46875,0.92187 0.53125,0.39063 1.4375,0.39063 0.96875,0 1.5,-0.39063 0.53125,-0.39062 0.71875,-1.09375 0.10938,-0.42187 0.10938,-1.8125 -0.92188,1.09375 -2.29688,1.09375 -1.71875,0 -2.65625,-1.23437 -0.9375,-1.23438 -0.9375,-2.96875 0,-1.1875 0.42188,-2.1875 0.4375,-1 1.25,-1.54688 0.82812,-0.54687 1.92187,-0.54687 1.46875,0 2.42188,1.1875 l 0,-1 1.29687,0 0,7.17187 q 0,1.9375 -0.39062,2.75 -0.39063,0.8125 -1.25,1.28125 -0.85938,0.46875 -2.10938,0.46875 -1.48437,0 -2.40625,-0.67187 -0.90625,-0.67188 -0.875,-2.01563 z m 1.17188,-4.98437 q 0,1.625 0.64062,2.375 0.65625,0.75 1.625,0.75 0.96875,0 1.625,-0.73438 0.65625,-0.75 0.65625,-2.34375 0,-1.53125 -0.67187,-2.29687 -0.67188,-0.78125 -1.625,-0.78125 -0.9375,0 -1.59375,0.76562 -0.65625,0.76563 -0.65625,2.26563 z m 7.99219,-5.54688 0,-1.60937 1.40625,0 0,1.60937 -1.40625,0 z m 0,9.84375 0,-8.29687 1.40625,0 0,8.29687 -1.40625,0 z m 3.02343,-4.15625 q 0,-2.29687 1.28125,-3.40625 1.07813,-0.92187 2.60938,-0.92187 1.71875,0 2.79687,1.125 1.09375,1.10937 1.09375,3.09375 0,1.59375 -0.48437,2.51562 -0.48438,0.92188 -1.40625,1.4375 -0.90625,0.5 -2,0.5 -1.73438,0 -2.8125,-1.10937 -1.07813,-1.125 -1.07813,-3.23438 z m 1.45313,0 q 0,1.59375 0.6875,2.39063 0.70312,0.79687 1.75,0.79687 1.04687,0 1.73437,-0.79687 0.70313,-0.79688 0.70313,-2.4375 0,-1.53125 -0.70313,-2.32813 -0.6875,-0.79687 -1.73437,-0.79687 -1.04688,0 -1.75,0.79687 -0.6875,0.78125 -0.6875,2.375 z m 7.97656,4.15625 0,-8.29687 1.26563,0 0,1.17187 q 0.90625,-1.35937 2.64062,-1.35937 0.75,0 1.375,0.26562 0.625,0.26563 0.9375,0.70313 0.3125,0.4375 0.4375,1.04687 0.0781,0.39063 0.0781,1.35938 l 0,5.10937 -1.40625,0 0,-5.04687 q 0,-0.85938 -0.17188,-1.28125 -0.15625,-0.4375 -0.57812,-0.6875 -0.40625,-0.25 -0.96875,-0.25 -0.90625,0 -1.5625,0.57812 -0.64063,0.5625 -0.64063,2.15625 l 0,4.53125 -1.40625,0 z m 14.30469,-1.03125 q -0.78125,0.67188 -1.5,0.95313 -0.71875,0.26562 -1.54688,0.26562 -1.375,0 -2.10937,-0.67187 -0.73438,-0.67188 -0.73438,-1.70313 0,-0.60937 0.28125,-1.10937 0.28125,-0.51563 0.71875,-0.8125 0.45313,-0.3125 1.01563,-0.46875 0.42187,-0.10938 1.25,-0.20313 1.70312,-0.20312 2.51562,-0.48437 0,-0.29688 0,-0.375 0,-0.85938 -0.39062,-1.20313 -0.54688,-0.48437 -1.60938,-0.48437 -0.98437,0 -1.46875,0.35937 -0.46875,0.34375 -0.6875,1.21875 l -1.375,-0.1875 q 0.1875,-0.875 0.60938,-1.42187 0.4375,-0.54688 1.25,-0.82813 0.8125,-0.29687 1.875,-0.29687 1.0625,0 1.71875,0.25 0.67187,0.25 0.98437,0.625 0.3125,0.375 0.4375,0.95312 0.0781,0.35938 0.0781,1.29688 l 0,1.875 q 0,1.96875 0.0781,2.48437 0.0937,0.51563 0.35938,1 l -1.46875,0 q -0.21875,-0.4375 -0.28125,-1.03125 z M 349.54,445.03458 q -0.76562,0.3125 -2.29687,0.53125 -0.875,0.125 -1.23438,0.28125 -0.35937,0.15625 -0.5625,0.46875 -0.1875,0.29687 -0.1875,0.65625 0,0.5625 0.42188,0.9375 0.4375,0.375 1.25,0.375 0.8125,0 1.4375,-0.34375 0.64062,-0.35938 0.9375,-0.98438 0.23437,-0.46875 0.23437,-1.40625 l 0,-0.51562 z m 3.57032,4.17187 0,-11.45312 1.40625,0 0,11.45312 -1.40625,0 z m 3.78906,0 0,-11.45312 8.28125,0 0,1.34375 -6.76563,0 0,3.51562 6.34375,0 0,1.34375 -6.34375,0 0,3.89063 7.03125,0 0,1.35937 -8.54687,0 z m 10.4375,0 0,-11.45312 1.40625,0 0,11.45312 -1.40625,0 z m 9.25781,-2.67187 1.45313,0.17187 q -0.34375,1.28125 -1.28125,1.98438 -0.92188,0.70312 -2.35938,0.70312 -1.82812,0 -2.89062,-1.125 -1.0625,-1.125 -1.0625,-3.14062 0,-2.09375 1.07812,-3.25 1.07813,-1.15625 2.79688,-1.15625 1.65625,0 2.70312,1.14062 1.0625,1.125 1.0625,3.17188 0,0.125 0,0.375 l -6.1875,0 q 0.0781,1.375 0.76563,2.10937 0.70312,0.71875 1.73437,0.71875 0.78125,0 1.32813,-0.40625 0.54687,-0.40625 0.85937,-1.29687 z m -4.60937,-2.28125 4.625,0 q -0.0937,-1.04688 -0.53125,-1.5625 -0.67188,-0.8125 -1.73438,-0.8125 -0.96875,0 -1.64062,0.65625 -0.65625,0.64062 -0.71875,1.71875 z m 13.24218,1.90625 1.39063,0.1875 q -0.23438,1.42187 -1.17188,2.23437 -0.92187,0.8125 -2.28125,0.8125 -1.70312,0 -2.75,-1.10937 -1.03125,-1.125 -1.03125,-3.20313 0,-1.34375 0.4375,-2.34375 0.45313,-1.01562 1.35938,-1.51562 0.92187,-0.5 1.98437,-0.5 1.35938,0 2.21875,0.6875 0.85938,0.67187 1.09375,1.9375 l -1.35937,0.20312 q -0.20313,-0.82812 -0.70313,-1.25 -0.48437,-0.42187 -1.1875,-0.42187 -1.0625,0 -1.73437,0.76562 -0.65625,0.75 -0.65625,2.40625 0,1.67188 0.64062,2.4375 0.64063,0.75 1.67188,0.75 0.82812,0 1.375,-0.5 0.5625,-0.51562 0.70312,-1.57812 z m 5.65625,1.78125 0.20313,1.25 q -0.59375,0.125 -1.0625,0.125 -0.76563,0 -1.1875,-0.23438 -0.42188,-0.25 -0.59375,-0.64062 -0.17188,-0.40625 -0.17188,-1.67188 l 0,-4.76562 -1.03125,0 0,-1.09375 1.03125,0 0,-2.0625 1.40625,-0.84375 0,2.90625 1.40625,0 0,1.09375 -1.40625,0 0,4.84375 q 0,0.60937 0.0625,0.78125 0.0781,0.17187 0.25,0.28125 0.17188,0.0937 0.48438,0.0937 0.23437,0 0.60937,-0.0625 z m 0.85157,-2.89063 q 0,-2.29687 1.28125,-3.40625 1.07812,-0.92187 2.60937,-0.92187 1.71875,0 2.79688,1.125 1.09375,1.10937 1.09375,3.09375 0,1.59375 -0.48438,2.51562 -0.48437,0.92188 -1.40625,1.4375 -0.90625,0.5 -2,0.5 -1.73437,0 -2.8125,-1.10937 -1.07812,-1.125 -1.07812,-3.23438 z m 1.45312,0 q 0,1.59375 0.6875,2.39063 0.70313,0.79687 1.75,0.79687 1.04688,0 1.73438,-0.79687 0.70312,-0.79688 0.70312,-2.4375 0,-1.53125 -0.70312,-2.32813 -0.6875,-0.79687 -1.73438,-0.79687 -1.04687,0 -1.75,0.79687 -0.6875,0.78125 -0.6875,2.375 z m 7.96094,4.15625 0,-8.29687 1.26562,0 0,1.25 q 0.48438,-0.875 0.89063,-1.15625 0.40625,-0.28125 0.90625,-0.28125 0.70312,0 1.4375,0.45312 l -0.48438,1.29688 q -0.51562,-0.29688 -1.03125,-0.29688 -0.45312,0 -0.82812,0.28125 -0.35938,0.26563 -0.51563,0.76563 -0.23437,0.75 -0.23437,1.64062 l 0,4.34375 -1.40625,0 z m 10.75,-1.03125 q -0.78125,0.67188 -1.5,0.95313 -0.71875,0.26562 -1.54688,0.26562 -1.375,0 -2.10937,-0.67187 -0.73438,-0.67188 -0.73438,-1.70313 0,-0.60937 0.28125,-1.10937 0.28125,-0.51563 0.71875,-0.8125 0.45313,-0.3125 1.01563,-0.46875 0.42187,-0.10938 1.25,-0.20313 1.70312,-0.20312 2.51562,-0.48437 0,-0.29688 0,-0.375 0,-0.85938 -0.39062,-1.20313 -0.54688,-0.48437 -1.60938,-0.48437 -0.98437,0 -1.46875,0.35937 -0.46875,0.34375 -0.6875,1.21875 l -1.375,-0.1875 q 0.1875,-0.875 0.60938,-1.42187 0.4375,-0.54688 1.25,-0.82813 0.8125,-0.29687 1.875,-0.29687 1.0625,0 1.71875,0.25 0.67187,0.25 0.98437,0.625 0.3125,0.375 0.4375,0.95312 0.0781,0.35938 0.0781,1.29688 l 0,1.875 q 0,1.96875 0.0781,2.48437 0.0937,0.51563 0.35938,1 l -1.46875,0 q -0.21875,-0.4375 -0.28125,-1.03125 z M 411.79,445.03458 q -0.76562,0.3125 -2.29687,0.53125 -0.875,0.125 -1.23438,0.28125 -0.35937,0.15625 -0.5625,0.46875 -0.1875,0.29687 -0.1875,0.65625 0,0.5625 0.42188,0.9375 0.4375,0.375 1.25,0.375 0.8125,0 1.4375,-0.34375 0.64062,-0.35938 0.9375,-0.98438 0.23437,-0.46875 0.23437,-1.40625 l 0,-0.51562 z m 3.57032,4.17187 0,-11.45312 1.40625,0 0,11.45312 -1.40625,0 z m 3.75781,0 0,-11.45312 3.95312,0 q 1.32813,0 2.03125,0.15625 0.98438,0.23437 1.6875,0.82812 0.90625,0.76563 1.34375,1.95313 0.45313,1.1875 0.45313,2.71875 0,1.3125 -0.3125,2.32812 -0.29688,1 -0.78125,1.65625 -0.46875,0.65625 -1.03125,1.04688 -0.5625,0.375 -1.375,0.57812 -0.79688,0.1875 -1.82813,0.1875 l -4.14062,0 z m 1.51562,-1.35937 2.45313,0 q 1.125,0 1.76562,-0.20313 0.65625,-0.21875 1.03125,-0.59375 0.54688,-0.54687 0.84375,-1.45312 0.29688,-0.90625 0.29688,-2.20313 0,-1.79687 -0.59375,-2.76562 -0.57813,-0.96875 -1.42188,-1.29688 -0.60937,-0.23437 -1.96875,-0.23437 l -2.40625,0 0,8.75 z m 9.86719,-8.48438 0,-1.60937 1.40625,0 0,1.60937 -1.40625,0 z m 0,9.84375 0,-8.29687 1.40625,0 0,8.29687 -1.40625,0 z m 2.99219,-2.48437 1.39062,-0.21875 q 0.10938,0.84375 0.64063,1.29687 0.54687,0.4375 1.5,0.4375 0.96875,0 1.4375,-0.39062 0.46875,-0.40625 0.46875,-0.9375 0,-0.46875 -0.40625,-0.75 -0.29688,-0.1875 -1.4375,-0.46875 -1.54688,-0.39063 -2.15625,-0.67188 -0.59375,-0.29687 -0.90625,-0.79687 -0.29688,-0.5 -0.29688,-1.10938 0,-0.5625 0.25,-1.03125 0.25,-0.46875 0.6875,-0.78125 0.32813,-0.25 0.89063,-0.40625 0.57812,-0.17187 1.21875,-0.17187 0.98437,0 1.71875,0.28125 0.73437,0.28125 1.07812,0.76562 0.35938,0.46875 0.5,1.28125 l -1.375,0.1875 q -0.0937,-0.64062 -0.54687,-1 -0.45313,-0.35937 -1.26563,-0.35937 -0.96875,0 -1.39062,0.32812 -0.40625,0.3125 -0.40625,0.73438 0,0.28125 0.17187,0.5 0.17188,0.21875 0.53125,0.375 0.21875,0.0781 1.25,0.35937 1.48438,0.39063 2.07813,0.65625 0.59375,0.25 0.92187,0.73438 0.34375,0.48437 0.34375,1.20312 0,0.70313 -0.42187,1.32813 -0.40625,0.60937 -1.1875,0.95312 -0.76563,0.34375 -1.73438,0.34375 -1.625,0 -2.46875,-0.67187 -0.84375,-0.67188 -1.07812,-2 z m 11.625,1.21875 0.20312,1.25 q -0.59375,0.125 -1.0625,0.125 -0.76562,0 -1.1875,-0.23438 -0.42187,-0.25 -0.59375,-0.64062 -0.17187,-0.40625 -0.17187,-1.67188 l 0,-4.76562 -1.03125,0 0,-1.09375 1.03125,0 0,-2.0625 1.40625,-0.84375 0,2.90625 1.40625,0 0,1.09375 -1.40625,0 0,4.84375 q 0,0.60937 0.0625,0.78125 0.0781,0.17187 0.25,0.28125 0.17187,0.0937 0.48437,0.0937 0.23438,0 0.60938,-0.0625 z m 1.36719,1.26562 0,-8.29687 1.26562,0 0,1.25 q 0.48438,-0.875 0.89063,-1.15625 0.40625,-0.28125 0.90625,-0.28125 0.70312,0 1.4375,0.45312 l -0.48438,1.29688 q -0.51562,-0.29688 -1.03125,-0.29688 -0.45312,0 -0.82812,0.28125 -0.35938,0.26563 -0.51563,0.76563 -0.23437,0.75 -0.23437,1.64062 l 0,4.34375 -1.40625,0 z m 5.34375,-9.84375 0,-1.60937 1.40625,0 0,1.60937 -1.40625,0 z m 0,9.84375 0,-8.29687 1.40625,0 0,8.29687 -1.40625,0 z m 8.96093,-3.04687 1.39063,0.1875 q -0.23438,1.42187 -1.17188,2.23437 -0.92187,0.8125 -2.28125,0.8125 -1.70312,0 -2.75,-1.10937 -1.03125,-1.125 -1.03125,-3.20313 0,-1.34375 0.4375,-2.34375 0.45313,-1.01562 1.35938,-1.51562 0.92187,-0.5 1.98437,-0.5 1.35938,0 2.21875,0.6875 0.85938,0.67187 1.09375,1.9375 l -1.35937,0.20312 q -0.20313,-0.82812 -0.70313,-1.25 -0.48437,-0.42187 -1.1875,-0.42187 -1.0625,0 -1.73437,0.76562 -0.65625,0.75 -0.65625,2.40625 0,1.67188 0.64062,2.4375 0.64063,0.75 1.67188,0.75 0.82812,0 1.375,-0.5 0.5625,-0.51562 0.70312,-1.57812 z m 5.65625,1.78125 0.20313,1.25 q -0.59375,0.125 -1.0625,0.125 -0.76563,0 -1.1875,-0.23438 -0.42188,-0.25 -0.59375,-0.64062 -0.17188,-0.40625 -0.17188,-1.67188 l 0,-4.76562 -1.03125,0 0,-1.09375 1.03125,0 0,-2.0625 1.40625,-0.84375 0,2.90625 1.40625,0 0,1.09375 -1.40625,0 0,4.84375 q 0,0.60937 0.0625,0.78125 0.0781,0.17187 0.25,0.28125 0.17188,0.0937 0.48438,0.0937 0.23437,0 0.60937,-0.0625 z"
       id="path57"
       inkscape:connector-curvature="0"
       style="fill:#000000;fill-rule:nonzero" />
    <path
       d="m 272.76117,71.821526 105.85825,0 0,40.472434 -105.85825,0 z"
       id="path59"
       inkscape:connector-curvature="0"
       style="fill:#cfe2f3;fill-rule:evenodd" />
    <path
       d="m 272.76117,71.821526 105.85825,0 0,40.472434 -105.85825,0 z"
       id="path61"
       inkscape:connector-curvature="0"
       style="fill-rule:evenodd;stroke:#000000;stroke-width:1;stroke-linecap:butt;stroke-linejoin:round" />
    <path
       d="m 314.41293,97.91774 0,-11.453125 1.51563,0 0,10.09375 5.64062,0 0,1.359375 -7.15625,0 z m 8.78906,-9.84375 0,-1.609375 1.40625,0 0,1.609375 -1.40625,0 z m 0,9.84375 0,-8.296875 1.40625,0 0,8.296875 -1.40625,0 z m 2.99219,-2.484375 1.39063,-0.21875 q 0.10937,0.84375 0.64062,1.296875 0.54688,0.4375 1.5,0.4375 0.96875,0 1.4375,-0.390625 0.46875,-0.40625 0.46875,-0.9375 0,-0.46875 -0.40625,-0.75 -0.29687,-0.1875 -1.4375,-0.46875 -1.54687,-0.390625 -2.15625,-0.671875 -0.59375,-0.296875 -0.90625,-0.796875 -0.29687,-0.5 -0.29687,-1.109375 0,-0.5625 0.25,-1.03125 0.25,-0.46875 0.6875,-0.78125 0.32812,-0.25 0.89062,-0.40625 0.57813,-0.171875 1.21875,-0.171875 0.98438,0 1.71875,0.28125 0.73438,0.28125 1.07813,0.765625 0.35937,0.46875 0.5,1.28125 l -1.375,0.1875 q -0.0937,-0.640625 -0.54688,-1 -0.45312,-0.359375 -1.26562,-0.359375 -0.96875,0 -1.39063,0.328125 -0.40625,0.3125 -0.40625,0.734375 0,0.28125 0.17188,0.5 0.17187,0.21875 0.53125,0.375 0.21875,0.07813 1.25,0.359375 1.48437,0.390625 2.07812,0.65625 0.59375,0.25 0.92188,0.734375 0.34375,0.484375 0.34375,1.203125 0,0.703125 -0.42188,1.328125 -0.40625,0.609375 -1.1875,0.953125 -0.76562,0.34375 -1.73437,0.34375 -1.625,0 -2.46875,-0.671875 -0.84375,-0.671875 -1.07813,-2 z m 11.62503,1.21875 0.20313,1.25 q -0.59375,0.125 -1.0625,0.125 -0.76566,0 -1.18753,-0.234375 -0.42188,-0.25 -0.59375,-0.640625 -0.17188,-0.40625 -0.17188,-1.671875 l 0,-4.765625 -1.03125,0 0,-1.09375 1.03125,0 0,-2.0625 1.40625,-0.84375 0,2.90625 1.40628,0 0,1.09375 -1.40628,0 0,4.84375 q 0,0.609375 0.0625,0.78125 0.0781,0.171875 0.25,0.28125 0.17191,0.09375 0.48441,0.09375 0.23437,0 0.60937,-0.0625 z"
       id="path63"
       inkscape:connector-curvature="0"
       style="fill:#000000;fill-rule:nonzero" />
    <path
       d="m 422.48032,71.821526 105.85825,0 0,40.472434 -105.85825,0 z"
       id="path65"
       inkscape:connector-curvature="0"
       style="fill:#cfe2f3;fill-rule:evenodd" />
    <path
       d="m 422.48032,71.821526 105.85825,0 0,40.472434 -105.85825,0 z"
       id="path67"
       inkscape:connector-curvature="0"
       style="fill-rule:evenodd;stroke:#000000;stroke-width:1;stroke-linecap:butt;stroke-linejoin:round" />
    <path
       d="m 457.97195,97.91774 0,-11.453125 4.32812,0 q 1.14063,0 1.73438,0.109375 0.84375,0.140625 1.40625,0.53125 0.57812,0.390625 0.92187,1.109375 0.35938,0.703125 0.35938,1.5625 0,1.453125 -0.9375,2.46875 -0.92188,1.015625 -3.35938,1.015625 l -2.9375,0 0,4.65625 -1.51562,0 z m 1.51562,-6.015625 2.96875,0 q 1.46875,0 2.07813,-0.546875 0.625,-0.546875 0.625,-1.53125 0,-0.71875 -0.375,-1.234375 -0.35938,-0.515625 -0.95313,-0.671875 -0.375,-0.109375 -1.40625,-0.109375 l -2.9375,0 0,4.09375 z m 14.39063,4.984375 q -0.78125,0.671875 -1.5,0.953125 -0.71875,0.265625 -1.54688,0.265625 -1.375,0 -2.10937,-0.671875 -0.73438,-0.671875 -0.73438,-1.703125 0,-0.609375 0.28125,-1.109375 0.28125,-0.515625 0.71875,-0.8125 0.45313,-0.3125 1.01563,-0.46875 0.42187,-0.109375 1.25,-0.203125 1.70312,-0.203125 2.51562,-0.484375 0,-0.296875 0,-0.375 0,-0.859375 -0.39062,-1.203125 -0.54688,-0.484375 -1.60938,-0.484375 -0.98437,0 -1.46875,0.359375 -0.46875,0.34375 -0.6875,1.21875 l -1.375,-0.1875 q 0.1875,-0.875 0.60938,-1.421875 0.4375,-0.546875 1.25,-0.828125 0.8125,-0.296875 1.875,-0.296875 1.0625,0 1.71875,0.25 0.67187,0.25 0.98437,0.625 0.3125,0.375 0.4375,0.953125 0.0781,0.359375 0.0781,1.296875 l 0,1.875 q 0,1.96875 0.0781,2.484375 0.0937,0.515625 0.35938,1 l -1.46875,0 q -0.21875,-0.4375 -0.28125,-1.03125 z m -0.10938,-3.140625 q -0.76562,0.3125 -2.29687,0.53125 -0.875,0.125 -1.23438,0.28125 -0.35937,0.15625 -0.5625,0.46875 -0.1875,0.296875 -0.1875,0.65625 0,0.5625 0.42188,0.9375 0.4375,0.375 1.25,0.375 0.8125,0 1.4375,-0.34375 0.64062,-0.359375 0.9375,-0.984375 0.23437,-0.46875 0.23437,-1.40625 l 0,-0.515625 z m 3.58594,4.171875 0,-8.296875 1.26563,0 0,1.25 q 0.48437,-0.875 0.89062,-1.15625 0.40625,-0.28125 0.90625,-0.28125 0.70313,0 1.4375,0.453125 l -0.48437,1.296875 q -0.51563,-0.296875 -1.03125,-0.296875 -0.45313,0 -0.82813,0.28125 -0.35937,0.265625 -0.51562,0.765625 -0.23438,0.75 -0.23438,1.640625 l 0,4.34375 -1.40625,0 z m 8.40625,-1.265625 0.20313,1.25 q -0.59375,0.125 -1.0625,0.125 -0.76563,0 -1.1875,-0.234375 -0.42188,-0.25 -0.59375,-0.640625 -0.17188,-0.40625 -0.17188,-1.671875 l 0,-4.765625 -1.03125,0 0,-1.09375 1.03125,0 0,-2.0625 1.40625,-0.84375 0,2.90625 1.40625,0 0,1.09375 -1.40625,0 0,4.84375 q 0,0.609375 0.0625,0.78125 0.0781,0.171875 0.25,0.28125 0.17188,0.09375 0.48438,0.09375 0.23437,0 0.60937,-0.0625 z m 1.32031,4.468745 -0.15625,-1.32812 q 0.45313,0.125 0.79688,0.125 0.46875,0 0.75,-0.15625 0.28125,-0.15625 0.46875,-0.4375 0.125,-0.203125 0.42187,-1.046875 0.0469,-0.109375 0.125,-0.34375 l -3.14062,-8.3125 1.51562,0 1.71875,4.796875 q 0.34375,0.921875 0.60938,1.921875 0.23437,-0.96875 0.57812,-1.890625 l 1.76563,-4.828125 1.40625,0 -3.15625,8.4375 q -0.5,1.375 -0.78125,1.890625 -0.375,0.6875 -0.85938,1.01562 -0.48437,0.32813 -1.15625,0.32813 -0.40625,0 -0.90625,-0.17188 z"
       id="path69"
       inkscape:connector-curvature="0"
       style="fill:#000000;fill-rule:nonzero" />
    <path
       d="m 305.7638,151.5748 105.85825,0 0,40.47244 -105.85825,0 z"
       id="path71"
       inkscape:connector-curvature="0"
       style="fill:#cfe2f3;fill-rule:evenodd" />
    <path
       d="m 305.7638,151.5748 105.85825,0 0,40.47244 -105.85825,0 z"
       id="path73"
       inkscape:connector-curvature="0"
       style="fill-rule:evenodd;stroke:#000000;stroke-width:1;stroke-linecap:butt;stroke-linejoin:round" />
    <path
       d="m 327.05618,177.67102 0,-11.45313 5.07812,0 q 1.53125,0 2.32813,0.3125 0.79687,0.29688 1.26562,1.07813 0.48438,0.78125 0.48438,1.73437 0,1.21875 -0.79688,2.0625 -0.78125,0.82813 -2.4375,1.04688 0.60938,0.29687 0.92188,0.57812 0.65625,0.60938 1.25,1.51563 l 2,3.125 -1.90625,0 -1.51563,-2.39063 q -0.67187,-1.03125 -1.10937,-1.57812 -0.42188,-0.54688 -0.76563,-0.76563 -0.32812,-0.21875 -0.6875,-0.29687 -0.25,-0.0625 -0.84375,-0.0625 l -1.75,0 0,5.09375 -1.51562,0 z m 1.51562,-6.40625 3.25,0 q 1.04688,0 1.625,-0.20313 0.59375,-0.21875 0.89063,-0.6875 0.3125,-0.48437 0.3125,-1.03125 0,-0.8125 -0.59375,-1.32812 -0.59375,-0.53125 -1.85938,-0.53125 l -3.625,0 0,3.78125 z m 15.24219,5.375 q -0.78125,0.67187 -1.5,0.95312 -0.71875,0.26563 -1.54687,0.26563 -1.375,0 -2.10938,-0.67188 -0.73437,-0.67187 -0.73437,-1.70312 0,-0.60938 0.28125,-1.10938 0.28125,-0.51562 0.71875,-0.8125 0.45312,-0.3125 1.01562,-0.46875 0.42188,-0.10937 1.25,-0.20312 1.70313,-0.20313 2.51563,-0.48438 0,-0.29687 0,-0.375 0,-0.85937 -0.39063,-1.20312 -0.54687,-0.48438 -1.60937,-0.48438 -0.98438,0 -1.46875,0.35938 -0.46875,0.34375 -0.6875,1.21875 l -1.375,-0.1875 q 0.1875,-0.875 0.60937,-1.42188 0.4375,-0.54687 1.25,-0.82812 0.8125,-0.29688 1.875,-0.29688 1.0625,0 1.71875,0.25 0.67188,0.25 0.98438,0.625 0.3125,0.375 0.4375,0.95313 0.0781,0.35937 0.0781,1.29687 l 0,1.875 q 0,1.96875 0.0781,2.48438 0.0937,0.51562 0.35937,1 l -1.46875,0 q -0.21875,-0.4375 -0.28125,-1.03125 z m -0.10937,-3.14063 q -0.76563,0.3125 -2.29688,0.53125 -0.875,0.125 -1.23437,0.28125 -0.35938,0.15625 -0.5625,0.46875 -0.1875,0.29688 -0.1875,0.65625 0,0.5625 0.42187,0.9375 0.4375,0.375 1.25,0.375 0.8125,0 1.4375,-0.34375 0.64063,-0.35937 0.9375,-0.98437 0.23438,-0.46875 0.23438,-1.40625 l 0,-0.51563 z m 5.13281,4.17188 -2.54688,-8.29688 1.45313,0 1.32812,4.78125 0.48438,1.78125 q 0.0312,-0.125 0.4375,-1.70312 l 1.3125,-4.85938 1.45312,0 1.23438,4.8125 0.42187,1.57813 0.46875,-1.59375 1.42188,-4.79688 1.375,0 -2.59375,8.29688 -1.46875,0 -1.3125,-4.96875 -0.32813,-1.42188 -1.67187,6.39063 -1.46875,0 z m 10.19531,0 0,-11.45313 3.95313,0 q 1.32812,0 2.03125,0.15625 0.98437,0.23438 1.6875,0.82813 0.90625,0.76562 1.34375,1.95312 0.45312,1.1875 0.45312,2.71875 0,1.3125 -0.3125,2.32813 -0.29687,1 -0.78125,1.65625 -0.46875,0.65625 -1.03125,1.04687 -0.5625,0.375 -1.375,0.57813 -0.79687,0.1875 -1.82812,0.1875 l -4.14063,0 z m 1.51563,-1.35938 2.45312,0 q 1.125,0 1.76563,-0.20312 0.65625,-0.21875 1.03125,-0.59375 0.54687,-0.54688 0.84375,-1.45313 0.29687,-0.90625 0.29687,-2.20312 0,-1.79688 -0.59375,-2.76563 -0.57812,-0.96875 -1.42187,-1.29687 -0.60938,-0.23438 -1.96875,-0.23438 l -2.40625,0 0,8.75 z m 15.27347,0.32813 q -0.78125,0.67187 -1.5,0.95312 -0.71875,0.26563 -1.54688,0.26563 -1.375,0 -2.10937,-0.67188 -0.73438,-0.67187 -0.73438,-1.70312 0,-0.60938 0.28125,-1.10938 0.28125,-0.51562 0.71875,-0.8125 0.45313,-0.3125 1.01563,-0.46875 0.42187,-0.10937 1.25,-0.20312 1.70312,-0.20313 2.51562,-0.48438 0,-0.29687 0,-0.375 0,-0.85937 -0.39062,-1.20312 -0.54688,-0.48438 -1.60938,-0.48438 -0.98437,0 -1.46875,0.35938 -0.46875,0.34375 -0.6875,1.21875 l -1.375,-0.1875 q 0.1875,-0.875 0.60938,-1.42188 0.4375,-0.54687 1.25,-0.82812 0.8125,-0.29688 1.875,-0.29688 1.0625,0 1.71875,0.25 0.67187,0.25 0.98437,0.625 0.3125,0.375 0.4375,0.95313 0.0781,0.35937 0.0781,1.29687 l 0,1.875 q 0,1.96875 0.0781,2.48438 0.0937,0.51562 0.35938,1 l -1.46875,0 q -0.21875,-0.4375 -0.28125,-1.03125 z m -0.10938,-3.14063 q -0.76562,0.3125 -2.29687,0.53125 -0.875,0.125 -1.23438,0.28125 -0.35937,0.15625 -0.5625,0.46875 -0.1875,0.29688 -0.1875,0.65625 0,0.5625 0.42188,0.9375 0.4375,0.375 1.25,0.375 0.8125,0 1.4375,-0.34375 0.64062,-0.35937 0.9375,-0.98437 0.23437,-0.46875 0.23437,-1.40625 l 0,-0.51563 z m 6.66406,2.90625 0.20313,1.25 q -0.59375,0.125 -1.0625,0.125 -0.76563,0 -1.1875,-0.23437 -0.42188,-0.25 -0.59375,-0.64063 -0.17188,-0.40625 -0.17188,-1.67187 l 0,-4.76563 -1.03125,0 0,-1.09375 1.03125,0 0,-2.0625 1.40625,-0.84375 0,2.90625 1.40625,0 0,1.09375 -1.40625,0 0,4.84375 q 0,0.60938 0.0625,0.78125 0.0781,0.17188 0.25,0.28125 0.17188,0.0937 0.48438,0.0937 0.23437,0 0.60937,-0.0625 z m 6.78907,0.23438 q -0.78125,0.67187 -1.5,0.95312 -0.71875,0.26563 -1.54688,0.26563 -1.375,0 -2.10937,-0.67188 -0.73438,-0.67187 -0.73438,-1.70312 0,-0.60938 0.28125,-1.10938 0.28125,-0.51562 0.71875,-0.8125 0.45313,-0.3125 1.01563,-0.46875 0.42187,-0.10937 1.25,-0.20312 1.70312,-0.20313 2.51562,-0.48438 0,-0.29687 0,-0.375 0,-0.85937 -0.39062,-1.20312 -0.54688,-0.48438 -1.60938,-0.48438 -0.98437,0 -1.46875,0.35938 -0.46875,0.34375 -0.6875,1.21875 l -1.375,-0.1875 q 0.1875,-0.875 0.60938,-1.42188 0.4375,-0.54687 1.25,-0.82812 0.8125,-0.29688 1.875,-0.29688 1.0625,0 1.71875,0.25 0.67187,0.25 0.98437,0.625 0.3125,0.375 0.4375,0.95313 0.0781,0.35937 0.0781,1.29687 l 0,1.875 q 0,1.96875 0.0781,2.48438 0.0937,0.51562 0.35938,1 l -1.46875,0 q -0.21875,-0.4375 -0.28125,-1.03125 z m -0.10938,-3.14063 q -0.76562,0.3125 -2.29687,0.53125 -0.875,0.125 -1.23438,0.28125 -0.35937,0.15625 -0.5625,0.46875 -0.1875,0.29688 -0.1875,0.65625 0,0.5625 0.42188,0.9375 0.4375,0.375 1.25,0.375 0.8125,0 1.4375,-0.34375 0.64062,-0.35937 0.9375,-0.98437 0.23437,-0.46875 0.23437,-1.40625 l 0,-0.51563 z"
       id="path75"
       inkscape:connector-curvature="0"
       style="fill:#000000;fill-rule:nonzero" />
    <path
       d="m 146.69292,383.81104 0,39.71652"
       id="path77"
       inkscape:connector-curvature="0"
       style="fill:#000000;fill-opacity:0;fill-rule:evenodd" />
    <path
       d="m 146.69292,383.81104 0,33.71652"
       id="path79"
       inkscape:connector-curvature="0"
       style="fill-rule:evenodd;stroke:#000000;stroke-width:1;stroke-linecap:butt;stroke-linejoin:round" />
    <path
       d="m 145.04118,417.52756 1.65173,4.53809 1.65174,-4.53809 z"
       id="path81"
       inkscape:connector-curvature="0"
       style="fill:#000000;fill-rule:evenodd;stroke:#000000;stroke-width:1;stroke-linecap:butt" />
    <path
       d="m 378.61942,92.05774 43.87402,0"
       id="path83"
       inkscape:connector-curvature="0"
       style="fill:#000000;fill-opacity:0;fill-rule:evenodd" />
    <path
       d="m 378.61942,92.05774 37.87402,0"
       id="path85"
       inkscape:connector-curvature="0"
       style="fill-rule:evenodd;stroke:#000000;stroke-width:1;stroke-linecap:butt;stroke-linejoin:round" />
    <path
       d="m 416.49344,93.70947 4.53809,-1.651733 -4.53809,-1.651726 z"
       id="path87"
       inkscape:connector-curvature="0"
       style="fill:#000000;fill-rule:evenodd;stroke:#000000;stroke-width:1;stroke-linecap:butt" />
    <path
       d="m 146.69292,543.9134 0,39.43304"
       id="path89"
       inkscape:connector-curvature="0"
       style="fill:#000000;fill-opacity:0;fill-rule:evenodd" />
    <path
       d="m 146.69292,543.9134 0,33.43304"
       id="path91"
       inkscape:connector-curvature="0"
       style="fill-rule:evenodd;stroke:#000000;stroke-width:1;stroke-linecap:butt;stroke-linejoin:round" />
    <path
       d="m 145.04118,577.34644 1.65173,4.53815 1.65174,-4.53815 z"
       id="path93"
       inkscape:connector-curvature="0"
       style="fill:#000000;fill-rule:evenodd;stroke:#000000;stroke-width:1;stroke-linecap:butt" />
    <path
       d="m 206.69292,443.7638 66.64568,-0.40945"
       id="path95"
       inkscape:connector-curvature="0"
       style="fill:#000000;fill-opacity:0;fill-rule:evenodd" />
    <path
       d="m 206.69292,443.7638 60.6458,-0.37259"
       id="path97"
       inkscape:connector-curvature="0"
       style="fill-rule:evenodd;stroke:#000000;stroke-width:1;stroke-linecap:butt;stroke-linejoin:round" />
    <path
       d="m 267.34885,445.0429 4.52786,-1.6796 -4.54815,-1.62381 z"
       id="path99"
       inkscape:connector-curvature="0"
       style="fill:#000000;fill-rule:evenodd;stroke:#000000;stroke-width:1;stroke-linecap:butt" />
    <path
       d="m 146.69292,464 0,39.43308"
       id="path101"
       inkscape:connector-curvature="0"
       style="fill:#000000;fill-opacity:0;fill-rule:evenodd" />
    <path
       d="m 146.69292,464 0,33.43308"
       id="path103"
       inkscape:connector-curvature="0"
       style="fill-rule:evenodd;stroke:#000000;stroke-width:1;stroke-linecap:butt;stroke-linejoin:round" />
    <path
       d="m 145.04118,497.43307 1.65173,4.53809 1.65174,-4.53809 z"
       id="path105"
       inkscape:connector-curvature="0"
       style="fill:#000000;fill-rule:evenodd;stroke:#000000;stroke-width:1;stroke-linecap:butt" />
    <path
       d="m 148.67717,281.937 -1.98425,61.41733"
       id="path107"
       inkscape:connector-curvature="0"
       style="fill:#000000;fill-opacity:0;fill-rule:evenodd" />
    <path
       d="m 148.67717,281.937 -1.79051,55.42047"
       id="path109"
       inkscape:connector-curvature="0"
       style="fill-rule:evenodd;stroke:#000000;stroke-width:1;stroke-linecap:butt;stroke-linejoin:round" />
    <path
       d="m 145.2358,337.30414 1.50432,4.58905 1.79742,-4.48239 z"
       id="path111"
       inkscape:connector-curvature="0"
       style="fill:#000000;fill-rule:evenodd;stroke:#000000;stroke-width:1;stroke-linecap:butt" />
    <path
       d="m 230.67717,259.5748 68.03148,0"
       id="path113"
       inkscape:connector-curvature="0"
       style="fill:#000000;fill-opacity:0;fill-rule:evenodd" />
    <path
       d="m 230.67717,259.5748 62.03148,0"
       id="path115"
       inkscape:connector-curvature="0"
       style="fill-rule:evenodd;stroke:#000000;stroke-width:1;stroke-linecap:butt;stroke-linejoin:round" />
    <path
       d="m 292.70865,261.22653 4.53812,-1.65173 -4.53812,-1.65174 z"
       id="path117"
       inkscape:connector-curvature="0"
       style="fill:#000000;fill-rule:evenodd;stroke:#000000;stroke-width:1;stroke-linecap:butt" />
    <path
       d="m 220.64568,91.57481 52.12599,0.472435"
       id="path119"
       inkscape:connector-curvature="0"
       style="fill:#000000;fill-opacity:0;fill-rule:evenodd" />
    <path
       d="m 220.64568,91.57481 46.12624,0.41806"
       id="path121"
       inkscape:connector-curvature="0"
       style="fill-rule:evenodd;stroke:#000000;stroke-width:1;stroke-linecap:butt;stroke-linejoin:round" />
    <path
       d="m 266.75693,93.64453 4.55289,-1.610535 -4.52295,-1.692795 z"
       id="path123"
       inkscape:connector-curvature="0"
       style="fill:#000000;fill-rule:evenodd;stroke:#000000;stroke-width:1;stroke-linecap:butt" />
    <path
       d="m 358.6929,192.04724 0,47.30708"
       id="path125"
       inkscape:connector-curvature="0"
       style="fill:#000000;fill-opacity:0;fill-rule:evenodd" />
    <path
       d="m 358.6929,192.04724 0,41.30708"
       id="path127"
       inkscape:connector-curvature="0"
       style="fill-rule:evenodd;stroke:#000000;stroke-width:1;stroke-linecap:butt;stroke-linejoin:round" />
    <path
       d="m 357.04117,233.35432 1.65173,4.5381 1.65174,-4.5381 z"
       id="path129"
       inkscape:connector-curvature="0"
       style="fill:#000000;fill-rule:evenodd;stroke:#000000;stroke-width:1;stroke-linecap:butt" />
    <path
       d="m 223.97638,66.86352 42.96063,0 0,31.779526 -42.96063,0 z"
       id="path131"
       inkscape:connector-curvature="0"
       style="fill:#000000;fill-opacity:0;fill-rule:evenodd" />
    <path
       d="m 238.76862,86.103516 0,-5.703125 0.875,0 0,0.8125 q 0.625,-0.9375 1.8125,-0.9375 0.51562,0 0.95312,0.1875 0.4375,0.171875 0.64063,0.484375 0.21875,0.296875 0.3125,0.703125 0.0469,0.28125 0.0469,0.953125 l 0,3.5 -0.96875,0 0,-3.46875 q 0,-0.59375 -0.10937,-0.875 -0.10938,-0.296875 -0.40625,-0.46875 -0.28125,-0.1875 -0.67188,-0.1875 -0.60937,0 -1.0625,0.390625 -0.45312,0.390625 -0.45312,1.5 l 0,3.109375 -0.96875,0 z m 6.20775,-4.609375 0,-1.09375 1.09375,0 0,1.09375 -1.09375,0 z m 0,4.609375 0,-1.09375 1.09375,0 0,1.09375 -1.09375,0 z m 6.0544,0 -0.96875,0 0,-6.15625 q -0.34375,0.328125 -0.90625,0.671875 -0.5625,0.328125 -1.01563,0.484375 l 0,-0.9375 q 0.8125,-0.375 1.40625,-0.90625 0.60938,-0.546875 0.85938,-1.0625 l 0.625,0 0,7.90625 z"
       id="path133"
       inkscape:connector-curvature="0"
       style="fill:#000000;fill-rule:nonzero" />
    <path
       d="m 375.97638,66.86352 42.96063,0 0,31.779526 -42.96063,0 z"
       id="path135"
       inkscape:connector-curvature="0"
       style="fill:#000000;fill-opacity:0;fill-rule:evenodd" />
    <path
       d="m 394.14362,86.103516 -0.96875,0 0,-6.15625 q -0.34375,0.328125 -0.90625,0.671875 -0.5625,0.328125 -1.01563,0.484375 l 0,-0.9375 q 0.8125,-0.375 1.40625,-0.90625 0.60938,-0.546875 0.85938,-1.0625 l 0.625,0 0,7.90625 z m 2.83276,-4.609375 0,-1.09375 1.09375,0 0,1.09375 -1.09375,0 z m 0,4.609375 0,-1.09375 1.09375,0 0,1.09375 -1.09375,0 z m 6.05439,0 -0.96875,0 0,-6.15625 q -0.34375,0.328125 -0.90625,0.671875 -0.5625,0.328125 -1.01563,0.484375 l 0,-0.9375 q 0.8125,-0.375 1.40625,-0.90625 0.60938,-0.546875 0.85938,-1.0625 l 0.625,0 0,7.90625 z"
       id="path137"
       inkscape:connector-curvature="0"
       style="fill:#000000;fill-rule:nonzero" />
    <path
       d="m 143.97638,154.86351 42.96063,0 0,31.77954 -42.96063,0 z"
       id="path139"
       inkscape:connector-curvature="0"
       style="fill:#000000;fill-opacity:0;fill-rule:evenodd" />
    <path
       d="m 158.76862,174.10352 0,-5.70313 0.875,0 0,0.8125 q 0.625,-0.9375 1.8125,-0.9375 0.51562,0 0.95312,0.1875 0.4375,0.17188 0.64063,0.48438 0.21875,0.29687 0.3125,0.70312 0.0469,0.28125 0.0469,0.95313 l 0,3.5 -0.96875,0 0,-3.46875 q 0,-0.59375 -0.10937,-0.875 -0.10938,-0.29688 -0.40625,-0.46875 -0.28125,-0.1875 -0.67188,-0.1875 -0.60937,0 -1.0625,0.39062 -0.45312,0.39063 -0.45312,1.5 l 0,3.10938 -0.96875,0 z m 6.20775,-4.60938 0,-1.09375 1.09375,0 0,1.09375 -1.09375,0 z m 0,4.60938 0,-1.09375 1.09375,0 0,1.09375 -1.09375,0 z m 6.0544,0 -0.96875,0 0,-6.15625 q -0.34375,0.32812 -0.90625,0.67187 -0.5625,0.32813 -1.01563,0.48438 l 0,-0.9375 q 0.8125,-0.375 1.40625,-0.90625 0.60938,-0.54688 0.85938,-1.0625 l 0.625,0 0,7.90625 z"
       id="path141"
       inkscape:connector-curvature="0"
       style="fill:#000000;fill-rule:nonzero" />
    <path
       d="m 239.97638,234.86351 42.96063,0 0,31.77953 -42.96063,0 z"
       id="path143"
       inkscape:connector-curvature="0"
       style="fill:#000000;fill-opacity:0;fill-rule:evenodd" />
    <path
       d="m 254.76862,254.10352 0,-5.70313 0.875,0 0,0.8125 q 0.625,-0.9375 1.8125,-0.9375 0.51562,0 0.95312,0.1875 0.4375,0.17188 0.64063,0.48438 0.21875,0.29687 0.3125,0.70312 0.0469,0.28125 0.0469,0.95313 l 0,3.5 -0.96875,0 0,-3.46875 q 0,-0.59375 -0.10937,-0.875 -0.10938,-0.29688 -0.40625,-0.46875 -0.28125,-0.1875 -0.67188,-0.1875 -0.60937,0 -1.0625,0.39062 -0.45312,0.39063 -0.45312,1.5 l 0,3.10938 -0.96875,0 z m 6.20776,-4.60938 0,-1.09375 1.09375,0 0,1.09375 -1.09375,0 z m 0,4.60938 0,-1.09375 1.09375,0 0,1.09375 -1.09375,0 z m 6.05439,0 -0.96875,0 0,-6.15625 q -0.34375,0.32812 -0.90625,0.67187 -0.5625,0.32813 -1.01563,0.48438 l 0,-0.9375 q 0.8125,-0.375 1.40625,-0.90625 0.60938,-0.54688 0.85938,-1.0625 l 0.625,0 0,7.90625 z"
       id="path145"
       inkscape:connector-curvature="0"
       style="fill:#000000;fill-rule:nonzero" />
    <path
       d="m 351.97638,194.86351 42.96063,0 0,31.77954 -42.96063,0 z"
       id="path147"
       inkscape:connector-curvature="0"
       style="fill:#000000;fill-opacity:0;fill-rule:evenodd" />
    <path
       d="m 366.76862,214.10352 0,-5.70313 0.875,0 0,0.8125 q 0.625,-0.9375 1.8125,-0.9375 0.51562,0 0.95312,0.1875 0.4375,0.17188 0.64063,0.48438 0.21875,0.29687 0.3125,0.70312 0.0469,0.28125 0.0469,0.95313 l 0,3.5 -0.96875,0 0,-3.46875 q 0,-0.59375 -0.10937,-0.875 -0.10938,-0.29688 -0.40625,-0.46875 -0.28125,-0.1875 -0.67188,-0.1875 -0.60937,0 -1.0625,0.39062 -0.45312,0.39063 -0.45312,1.5 l 0,3.10938 -0.96875,0 z m 6.20776,-4.60938 0,-1.09375 1.09375,0 0,1.09375 -1.09375,0 z m 0,4.60938 0,-1.09375 1.09375,0 0,1.09375 -1.09375,0 z m 6.05439,0 -0.96875,0 0,-6.15625 q -0.34375,0.32812 -0.90625,0.67187 -0.5625,0.32813 -1.01563,0.48438 l 0,-0.9375 q 0.8125,-0.375 1.40625,-0.90625 0.60938,-0.54688 0.85938,-1.0625 l 0.625,0 0,7.90625 z"
       id="path149"
       inkscape:connector-curvature="0"
       style="fill:#000000;fill-rule:nonzero" />
    <path
       d="m 143.97638,290.86353 42.96063,0 0,31.77951 -42.96063,0 z"
       id="path151"
       inkscape:connector-curvature="0"
       style="fill:#000000;fill-opacity:0;fill-rule:evenodd" />
    <path
       d="m 158.76862,310.10352 0,-5.70313 0.875,0 0,0.8125 q 0.625,-0.9375 1.8125,-0.9375 0.51562,0 0.95312,0.1875 0.4375,0.17188 0.64063,0.48438 0.21875,0.29687 0.3125,0.70312 0.0469,0.28125 0.0469,0.95313 l 0,3.5 -0.96875,0 0,-3.46875 q 0,-0.59375 -0.10937,-0.875 -0.10938,-0.29688 -0.40625,-0.46875 -0.28125,-0.1875 -0.67188,-0.1875 -0.60937,0 -1.0625,0.39062 -0.45312,0.39063 -0.45312,1.5 l 0,3.10938 -0.96875,0 z m 6.20775,-4.60938 0,-1.09375 1.09375,0 0,1.09375 -1.09375,0 z m 0,4.60938 0,-1.09375 1.09375,0 0,1.09375 -1.09375,0 z m 6.0544,0 -0.96875,0 0,-6.15625 q -0.34375,0.32812 -0.90625,0.67187 -0.5625,0.32813 -1.01563,0.48438 l 0,-0.9375 q 0.8125,-0.375 1.40625,-0.90625 0.60938,-0.54688 0.85938,-1.0625 l 0.625,0 0,7.90625 z"
       id="path153"
       inkscape:connector-curvature="0"
       style="fill:#000000;fill-rule:nonzero" />
    <path
       d="m 135.97638,386.86353 42.96063,0 0,31.77951 -42.96063,0 z"
       id="path155"
       inkscape:connector-curvature="0"
       style="fill:#000000;fill-opacity:0;fill-rule:evenodd" />
    <path
       d="m 150.76862,406.10352 0,-5.70313 0.875,0 0,0.8125 q 0.625,-0.9375 1.8125,-0.9375 0.51562,0 0.95312,0.1875 0.4375,0.17188 0.64063,0.48438 0.21875,0.29687 0.3125,0.70312 0.0469,0.28125 0.0469,0.95313 l 0,3.5 -0.96875,0 0,-3.46875 q 0,-0.59375 -0.10937,-0.875 -0.10938,-0.29688 -0.40625,-0.46875 -0.28125,-0.1875 -0.67188,-0.1875 -0.60937,0 -1.0625,0.39062 -0.45312,0.39063 -0.45312,1.5 l 0,3.10938 -0.96875,0 z m 6.20775,-4.60938 0,-1.09375 1.09375,0 0,1.09375 -1.09375,0 z m 0,4.60938 0,-1.09375 1.09375,0 0,1.09375 -1.09375,0 z m 6.0544,0 -0.96875,0 0,-6.15625 q -0.34375,0.32812 -0.90625,0.67187 -0.5625,0.32813 -1.01563,0.48438 l 0,-0.9375 q 0.8125,-0.375 1.40625,-0.90625 0.60938,-0.54688 0.85938,-1.0625 l 0.625,0 0,7.90625 z"
       id="path157"
       inkscape:connector-curvature="0"
       style="fill:#000000;fill-rule:nonzero" />
    <path
       d="m 215.97638,418.86353 42.96063,0 0,31.77951 -42.96063,0 z"
       id="path159"
       inkscape:connector-curvature="0"
       style="fill:#000000;fill-opacity:0;fill-rule:evenodd" />
    <path
       d="m 230.76862,438.10352 0,-5.70313 0.875,0 0,0.8125 q 0.625,-0.9375 1.8125,-0.9375 0.51562,0 0.95312,0.1875 0.4375,0.17188 0.64063,0.48438 0.21875,0.29687 0.3125,0.70312 0.0469,0.28125 0.0469,0.95313 l 0,3.5 -0.96875,0 0,-3.46875 q 0,-0.59375 -0.10937,-0.875 -0.10938,-0.29688 -0.40625,-0.46875 -0.28125,-0.1875 -0.67188,-0.1875 -0.60937,0 -1.0625,0.39062 -0.45312,0.39063 -0.45312,1.5 l 0,3.10938 -0.96875,0 z m 6.20775,-4.60938 0,-1.09375 1.09375,0 0,1.09375 -1.09375,0 z m 0,4.60938 0,-1.09375 1.09375,0 0,1.09375 -1.09375,0 z m 6.0544,0 -0.96875,0 0,-6.15625 q -0.34375,0.32812 -0.90625,0.67187 -0.5625,0.32813 -1.01563,0.48438 l 0,-0.9375 q 0.8125,-0.375 1.40625,-0.90625 0.60938,-0.54688 0.85938,-1.0625 l 0.625,0 0,7.90625 z"
       id="path161"
       inkscape:connector-curvature="0"
       style="fill:#000000;fill-rule:nonzero" />
    <path
       d="m 135.97638,466.86353 42.96063,0 0,31.77951 -42.96063,0 z"
       id="path163"
       inkscape:connector-curvature="0"
       style="fill:#000000;fill-opacity:0;fill-rule:evenodd" />
    <path
       d="m 150.76862,486.10352 0,-5.70313 0.875,0 0,0.8125 q 0.625,-0.9375 1.8125,-0.9375 0.51562,0 0.95312,0.1875 0.4375,0.17188 0.64063,0.48438 0.21875,0.29687 0.3125,0.70312 0.0469,0.28125 0.0469,0.95313 l 0,3.5 -0.96875,0 0,-3.46875 q 0,-0.59375 -0.10937,-0.875 -0.10938,-0.29688 -0.40625,-0.46875 -0.28125,-0.1875 -0.67188,-0.1875 -0.60937,0 -1.0625,0.39062 -0.45312,0.39063 -0.45312,1.5 l 0,3.10938 -0.96875,0 z m 6.20775,-4.60938 0,-1.09375 1.09375,0 0,1.09375 -1.09375,0 z m 0,4.60938 0,-1.09375 1.09375,0 0,1.09375 -1.09375,0 z m 6.0544,0 -0.96875,0 0,-6.15625 q -0.34375,0.32812 -0.90625,0.67187 -0.5625,0.32813 -1.01563,0.48438 l 0,-0.9375 q 0.8125,-0.375 1.40625,-0.90625 0.60938,-0.54688 0.85938,-1.0625 l 0.625,0 0,7.90625 z"
       id="path165"
       inkscape:connector-curvature="0"
       style="fill:#000000;fill-rule:nonzero" />
    <path
       d="m 135.97638,546.8635 42.96063,0 0,31.77954 -42.96063,0 z"
       id="path167"
       inkscape:connector-curvature="0"
       style="fill:#000000;fill-opacity:0;fill-rule:evenodd" />
    <path
       d="m 150.76862,566.1035 0,-5.70312 0.875,0 0,0.8125 q 0.625,-0.9375 1.8125,-0.9375 0.51562,0 0.95312,0.1875 0.4375,0.17187 0.64063,0.48437 0.21875,0.29688 0.3125,0.70313 0.0469,0.28125 0.0469,0.95312 l 0,3.5 -0.96875,0 0,-3.46875 q 0,-0.59375 -0.10937,-0.875 -0.10938,-0.29687 -0.40625,-0.46875 -0.28125,-0.1875 -0.67188,-0.1875 -0.60937,0 -1.0625,0.39063 -0.45312,0.39062 -0.45312,1.5 l 0,3.10937 -0.96875,0 z m 6.20775,-4.60937 0,-1.09375 1.09375,0 0,1.09375 -1.09375,0 z m 0,4.60937 0,-1.09375 1.09375,0 0,1.09375 -1.09375,0 z m 6.0544,0 -0.96875,0 0,-6.15625 q -0.34375,0.32813 -0.90625,0.67188 -0.5625,0.32812 -1.01563,0.48437 l 0,-0.9375 q 0.8125,-0.375 1.40625,-0.90625 0.60938,-0.54687 0.85938,-1.0625 l 0.625,0 0,7.90625 z"
       id="path169"
       inkscape:connector-curvature="0"
       style="fill:#000000;fill-rule:nonzero" />
    <path
       d="m 149.6693,111.81102 -0.97638,125.41733"
       id="path171"
       inkscape:connector-curvature="0"
       style="fill:#000000;fill-opacity:0;fill-rule:evenodd" />
    <path
       d="m 149.6693,111.81102 -0.92967,119.41751"
       id="path173"
       inkscape:connector-curvature="0"
       style="fill-rule:evenodd;stroke:#000000;stroke-width:1;stroke-linecap:butt;stroke-linejoin:round" />
    <path
       d="m 147.08794,231.21567 1.61636,4.55083 1.68702,-4.5251 z"
       id="path175"
       inkscape:connector-curvature="0"
       style="fill:#000000;fill-rule:evenodd;stroke:#000000;stroke-width:1;stroke-linecap:butt" />
  </g>
</svg>
